<svg version="1.2" xmlns="http://www.w3.org/2000/svg" viewBox="0 0 86 110" width="86" height="110">
	<title>about-circle-logo</title>
	<defs>
		<clipPath clipPathUnits="userSpaceOnUse" id="cp1">
			<path d="m0.6 0.38h81.65v75.88h-81.65z"/>
		</clipPath>
	</defs>
	<style>
		.s0 { fill: #023047 } 
	</style>
	<g id="Clip-Path" clip-path="url(#cp1)">
		<g>
			<path class="s0" d="m41.6 23.2c6.1 0 11.1-5 11.1-11.1 0-6.2-5-11.2-11.1-11.2-6.1 0-11.1 5-11.1 11.2 0 6.1 5 11.1 11.1 11.1zm0-17.1c3.3 0 6 2.7 6 6 0 3.2-2.7 5.9-6 5.9-3.3 0-6-2.7-6-5.9 0-3.3 2.7-6 6-6z"/>
			<path class="s0" d="m70.9 23.2q-1.7-2.6-3.9-5-0.2 0.1-0.4 0.1-2.8 0.4-5.2 1.6c-3.2 1.4-6 3.7-8.1 6.7-1.6 2.1-2.7 4.6-3.3 7.2q-0.1 0.1-0.1 0.3v0.2c-0.1 0.3-0.1 0.5-0.2 0.8l-6.9 36.2q-0.6 0-1.2 0-0.6 0-1.3 0l-6.8-36.2q-0.1-0.4-0.2-0.7v-0.3q-0.1-0.2-0.1-0.3c-0.6-2.6-1.7-5.1-3.3-7.2-2.1-3-4.9-5.3-8.1-6.7-1.8-0.8-3.7-1.4-5.6-1.7q-2.2 2.4-3.9 5c-3.5 5.5-5.4 11.9-5.4 18.6 0 19.1 15.6 34.7 34.7 34.7 19.1 0 34.7-15.6 34.7-34.7 0-6.7-1.9-13.1-5.4-18.6zm-58.8 18.6c0-6.5 2.1-12.8 6-17.8q0 0 0 0c3 0.9 5.7 2.8 7.6 5.6q1.8 2.5 2.5 5.5 0 0.1 0.1 0.1v0.2c0 0.2 0.1 0.4 0.1 0.6l6.6 34.6c-13.1-3-22.9-14.8-22.9-28.8zm36.1 28.8l6.6-34.6q0-0.3 0.1-0.7v-0.1q0.1 0 0.1-0.1 0.7-3 2.5-5.5c1.9-2.8 4.6-4.7 7.6-5.7 3.9 5.1 6 11.3 6 17.9 0 14-9.8 25.8-22.9 28.8z"/>
			<path class="s0" d="m41.6 29.9c0.8 0 1.5-0.7 1.5-1.5 0-0.8-0.7-1.5-1.5-1.5-0.8 0-1.5 0.7-1.5 1.5 0 0.8 0.7 1.5 1.5 1.5z"/>
			<path class="s0" d="m41.6 36.6c1 0 1.9-0.9 1.9-1.9 0-1-0.9-1.9-1.9-1.9-1 0-1.9 0.9-1.9 1.9 0 1 0.9 1.9 1.9 1.9z"/>
			<path class="s0" d="m41.6 39.5c-1.4 0-2.5 1.1-2.5 2.5 0 1.4 1.1 2.5 2.5 2.5 1.4 0 2.5-1.1 2.5-2.5 0-1.4-1.1-2.5-2.5-2.5z"/>
			<path class="s0" d="m41.6 54c-0.8 0-1.5 0.7-1.5 1.5 0 0.9 0.7 1.6 1.5 1.6 0.8 0 1.5-0.7 1.5-1.6 0-0.8-0.7-1.5-1.5-1.5z"/>
			<path class="s0" d="m41.6 47.4c-1 0-1.9 0.8-1.9 1.9 0 1 0.9 1.8 1.9 1.8 1 0 1.9-0.8 1.9-1.8 0-1.1-0.9-1.9-1.9-1.9z"/>
		</g>
	</g>
	<path class="s0" d="m11.5 130.1h-0.1q-0.8-0.7-2-1.2-1.2-0.5-2.6-0.5-1.4 0-2.5 0.5-1.1 0.4-1.9 1.2-0.8 0.8-1.3 2-0.4 1.1-0.4 2.6 0 1.7 0.4 3.1 0.4 1.4 1.3 2.5 0.8 1 2.1 1.6 1.3 0.6 3 0.6 0.6 0 1.2-0.1 0.6-0.1 1.2-0.4 0.5-0.3 1-0.6 0.5-0.4 0.9-0.8h0.2l-0.9 2.2q-0.8 0.3-1.8 0.5-1 0.2-1.9 0.2-2 0-3.7-0.6-1.6-0.6-2.8-1.6-1.2-1.1-1.9-2.6-0.6-1.4-0.6-3.2 0-1.1 0.2-2 0.3-1 0.8-1.9 0.5-0.9 1.3-1.7 0.7-0.7 1.6-1.3 1-0.5 2.1-0.8 1.2-0.3 2.5-0.3 2.1 0 3.9 0.6zm1.7 9.9q0-0.9 0.3-1.5 0.4-0.6 0.9-1 0.6-0.5 1.4-0.8 0.7-0.2 1.5-0.4 0.8-0.1 1.6-0.2 0.7-0.1 1.4-0.1v-0.5q0-0.7-0.2-1.2-0.2-0.6-0.5-0.9-0.4-0.3-0.8-0.5-0.5-0.2-1-0.2-0.4 0-0.8 0.1-0.4 0.1-0.8 0.2-0.4 0.2-0.8 0.4-0.5 0.3-1 0.7l-0.1-0.1 0.7-1.5q0.4-0.2 0.7-0.3 0.4-0.1 0.7-0.1 0.4-0.1 0.7-0.1 0.4-0.1 0.8-0.1 1.2 0 1.9 0.3 0.9 0.3 1.4 0.8 0.5 0.4 0.7 1.1 0.2 0.6 0.2 1.4v3.5q0 0.9 0.1 1.6 0 0.6 0 1.1 0.1 0.5 0.1 0.9 0.1 0.3 0.2 0.5v0.1h-2.4v-0.1q0-0.2 0.1-0.4 0-0.2 0-0.5-0.2 0.2-0.5 0.4-0.3 0.2-0.7 0.4-0.4 0.1-0.9 0.2-0.5 0.1-1 0.1-1.9 0-2.9-0.8-1-0.9-1-2.5zm7.1-3.1q-1 0-1.9 0.1-0.9 0.1-1.6 0.4-0.7 0.3-1.1 0.9-0.4 0.6-0.4 1.6 0 1.3 0.6 1.9 0.6 0.7 1.8 0.7 0.5 0 0.9-0.1 0.4-0.2 0.8-0.4 0.3-0.2 0.5-0.5 0.2-0.3 0.4-0.5 0-0.4 0-0.9 0-0.5 0-1.1zm5.1-0.5q0-1 0-1.6-0.1-0.7-0.1-1.2 0-0.5-0.1-0.8 0-0.4-0.1-0.6h2.5q-0.1 0.2-0.2 0.6 0 0.3-0.1 0.9 0.4-0.3 0.9-0.6 0.4-0.4 0.8-0.6 0.5-0.3 1-0.4 0.4-0.2 0.9-0.2 0.3 0 0.5 0.1 0.2 0 0.4 0 0.2 0.1 0.3 0.2 0.1 0 0.3 0.1l-0.6 2h-0.1q-0.2-0.5-0.5-0.8-0.4-0.3-1-0.3-0.3 0-0.7 0.1-0.4 0.2-0.7 0.4-0.4 0.2-0.8 0.5-0.4 0.2-0.7 0.5 0 0.3 0 0.7 0 0.4 0 0.8v2.7q0 1 0 1.7 0 0.6 0.1 1.1 0 0.5 0.1 0.8 0 0.4 0.1 0.6v0.1h-2.5v-0.1q0.1-0.2 0.1-0.6 0.1-0.3 0.1-0.8 0-0.5 0.1-1.1 0-0.7 0-1.7zm13.4 7q-1.1 0-2.2-0.3-1-0.4-1.8-1.1-0.8-0.8-1.2-1.8-0.5-1.1-0.5-2.5 0-1.2 0.4-2.2 0.4-1.1 1.2-1.8 0.7-0.8 1.6-1.2 1-0.4 2.1-0.4 1.1 0 2.1 0.3 0.9 0.4 1.6 1.1 0.7 0.8 1.1 1.8 0.4 1.1 0.4 2.5-1.2-0.1-2.4-0.1-1.2 0-2.5 0-0.9 0-1.8 0-0.9 0-1.6 0.1 0 1.1 0.3 2 0.3 0.9 0.8 1.5 0.5 0.7 1.2 1 0.7 0.4 1.6 0.4 0.7 0 1.2-0.2 0.6-0.1 1-0.4 0.5-0.2 0.8-0.6 0.4-0.3 0.6-0.8l0.2 0.1-0.8 1.9q-0.6 0.3-1.4 0.5-0.8 0.2-2 0.2zm-1.4-6.5q1.1 0 2.2 0 1.1 0 1.9-0.1-0.1-0.9-0.3-1.6-0.3-0.8-0.7-1.3-0.4-0.5-1-0.8-0.6-0.3-1.3-0.3-0.6 0-1.1 0.3-0.5 0.3-0.9 0.8-0.4 0.5-0.6 1.3-0.3 0.7-0.3 1.7 0.5 0 1 0 0.5 0 1.1 0zm15.4-0.5q0-1.1 0-2-0.1-0.8-0.1-1.3h-4.5v5.9q0 1 0 1.7 0 0.6 0.1 1.1 0 0.5 0.1 0.8 0 0.4 0.1 0.6v0.1h-2.5v-0.1q0.1-0.2 0.1-0.6 0.1-0.3 0.1-0.8 0.1-0.5 0.1-1.1 0-0.7 0-1.7v-5.9l-1.8 0.1v-1q0.4 0 0.8 0 0.5 0 1 0v-1.2q0-0.7 0.2-1.3 0.2-0.6 0.5-1.1 0.4-0.4 0.8-0.7 0.4-0.3 0.9-0.5 0.5-0.2 1-0.3 0.5-0.1 1-0.1 0.5 0 1 0.1 0.4 0 0.8 0.1 0.4 0 0.6 0.1 0.3 0.1 0.4 0.1l0.5 1.8-0.2 0.1q-0.2-0.3-0.5-0.5-0.3-0.3-0.7-0.5-0.4-0.2-0.9-0.3-0.5-0.2-1.1-0.2-0.2 0-0.6 0.1-0.5 0.1-0.9 0.4-0.3 0.3-0.6 0.9-0.3 0.6-0.3 1.6v1.4q1.5 0 2.7 0 1.2 0 2.1 0 0.8 0 1.4-0.1 0.5 0 0.6 0-0.1 0.5-0.1 1-0.1 0.5-0.1 1-0.1 0.5-0.1 1.1 0 0.6 0 1.2v2.6q0 1 0 1.7 0.1 0.6 0.1 1.1 0 0.5 0.1 0.8 0.1 0.4 0.1 0.6v0.1h-2.5v-0.1q0.1-0.2 0.2-0.6 0-0.3 0-0.8 0.1-0.5 0.1-1.1 0-0.7 0-1.7zm5.3 0q0-0.9-0.1-1.5 0-0.7 0-1.2-0.1-0.5-0.1-0.8-0.1-0.4-0.1-0.6v-0.1h2.4v0.1q0 0.2-0.1 0.6-0.1 0.3-0.1 0.9 0.4-0.3 0.8-0.6 0.5-0.4 0.9-0.6 0.5-0.3 0.9-0.4 0.5-0.2 1-0.2 0.3 0 0.5 0.1 0.2 0 0.4 0 0.1 0.1 0.3 0.1 0.1 0.1 0.2 0.2l-0.5 2h-0.2q-0.1-0.5-0.4-0.8-0.4-0.3-1-0.3-0.3 0-0.7 0.1-0.4 0.2-0.8 0.4-0.3 0.2-0.7 0.5-0.4 0.2-0.7 0.5-0.1 0.3-0.1 0.7 0 0.4 0 0.8v2.7q0 1 0.1 1.6 0 0.7 0 1.2 0.1 0.5 0.1 0.8 0.1 0.4 0.1 0.6h-2.4q0-0.2 0.1-0.6 0-0.3 0.1-0.8 0-0.5 0-1.2 0.1-0.6 0.1-1.6zm13.5-2h-0.2q-0.1-0.2-0.2-0.5-0.2-0.3-0.5-0.5-0.2-0.2-0.6-0.4-0.4-0.2-0.8-0.2-0.4 0-0.7 0.1-0.3 0.1-0.5 0.3-0.2 0.2-0.3 0.5-0.2 0.3-0.2 0.6 0 0.6 0.4 1.1 0.3 0.4 0.8 0.9 0.5 0.5 1 0.9 0.6 0.5 1.1 1 0.5 0.5 0.8 1.1 0.4 0.6 0.4 1.3 0 0.5-0.2 1.1-0.2 0.5-0.6 0.9-0.4 0.4-1.1 0.6-0.6 0.3-1.4 0.3-0.6 0-1-0.1-0.5-0.1-0.8-0.2-0.4-0.2-0.7-0.4-0.3-0.1-0.5-0.3l0.1-2h0.2q0.1 0.5 0.3 0.9 0.2 0.4 0.5 0.7 0.3 0.3 0.7 0.5 0.5 0.1 0.9 0.1 0.8 0 1.3-0.4 0.5-0.5 0.5-1.2 0-0.5-0.4-1-0.3-0.5-0.7-0.9-0.5-0.5-1.1-0.9-0.5-0.5-1-0.9-0.5-0.6-0.8-1.1-0.3-0.6-0.3-1.4 0-0.6 0.2-1.1 0.2-0.6 0.6-0.9 0.5-0.4 1-0.6 0.6-0.2 1.3-0.2 0.9 0 1.4 0.2 0.6 0.2 1 0.3zm6.8 8.2q0.3 0 0.6-0.1 0.3-0.1 0.6-0.3 0.3-0.2 0.6-0.5 0.3-0.2 0.5-0.5h0.1l-0.7 1.8q-0.1 0-0.3 0.1-0.2 0.1-0.4 0.2-0.3 0.1-0.7 0.1-0.3 0.1-0.8 0.1-1.4 0-2.2-0.8-0.8-0.8-0.8-2.4v-7.2l-1.8 0.1v-1q0.3 0 0.8 0.1 0.4 0 1 0 0-0.8-0.1-1.4 0-0.6 0-1-0.1-0.4-0.1-0.7-0.1-0.3-0.1-0.5v-0.1h2.5v0.1q-0.1 0.2-0.2 0.5 0 0.3-0.1 0.7 0 0.4 0 1-0.1 0.6-0.1 1.4 0.7 0 1.4-0.1 0.6 0 1.1 0 0.6 0 0.9-0.1 0.4 0 0.5 0l-0.2 1.1q-0.5 0-1.1 0-0.5-0.1-1.2-0.1-0.7 0-1.4 0v7.4q0 0.7 0.2 1.1 0.1 0.4 0.4 0.6 0.2 0.3 0.5 0.3 0.3 0.1 0.6 0.1z"/>
	<path id="Aura" class="s0" aria-label="Aura"  d="m30.7 98.8v1.2h-6.6v-1.2l1.6-0.1q0.1 0 0.2-0.2 0.1-0.2 0.1-0.3l-2-5.1h-6.4l-1.9 5q0 0.2 0.1 0.4 0.2 0.2 0.3 0.2l1.7 0.1v1.2h-5.7v-1.2l1.7-0.3 6.5-17.7h2.1l6.5 17.2q0.1 0.3 0.2 0.4 0.1 0.1 0.4 0.2zm-12.7-7.1h5.5l-2.8-7.3zm28.1 7.1v1.1h-4.4v-1.6q-0.5 0.4-1.2 0.9-0.8 0.4-1.6 0.8-0.9 0.3-1.7 0.3-1.8 0-2.8-1.1-1.1-1.1-1.1-3.5v-7.5h-1.9v-1l3.4-1.1h1.2v9.1q0 1.5 0.6 2.3 0.6 0.9 2.1 0.9 0.8 0 1.7-0.3 0.8-0.3 1.3-0.6v-9.3h-2v-1l3.4-1.1h1.2v12q0 0.3 0.2 0.5 0.2 0.1 0.4 0.2zm11.3-12.4v2.8h-1.1q-0.3-0.3-0.6-0.5-0.4-0.2-0.9-0.2-0.7 0-1.4 0.4-0.7 0.5-1.4 1.3v7.9q0 0.6 0.6 0.6l1.8 0.1v1.1h-7v-1.1l1.4-0.1q0.3 0 0.4-0.2 0.2-0.2 0.2-0.4v-9.8h-2v-0.9l3.4-1h1.2v2.5q1.2-1.4 2.1-2.2 0.8-0.7 1.6-0.7 0.4 0 0.9 0.2 0.5 0.1 0.8 0.2zm14.1 12.4v1.1h-4.2l-0.4-1.7q0 0-0.4 0.3-0.4 0.3-1.1 0.7-0.7 0.4-1.5 0.7-0.8 0.3-1.6 0.3-1.5 0-2.6-1-1.1-1-1.1-2.8 0-0.8 0.3-1.4 0.3-0.7 1.1-1.3 0.9-0.6 2.5-1.2 1.7-0.6 4.4-1.2 0 0 0-0.3 0-0.3 0-0.6 0-0.3 0-0.3 0-2.8-2.6-2.8-0.7 0-1.2 0.2-0.5 0.1-0.7 0.2v2.4h-2.1q-0.4 0-0.7-0.1-0.3-0.2-0.3-0.7 0-1.1 0.9-1.8 0.8-0.8 2.2-1.1 1.3-0.4 2.7-0.4 1.7 0 2.7 0.6 1 0.5 1.3 1.5 0.4 0.9 0.4 2.1v7.9q0 0.2 0.2 0.4 0.2 0.2 0.4 0.2zm-4.5-1.6v-4.8q-1.9 0.5-3 0.9-1.1 0.5-1.7 1-0.5 0.4-0.7 0.9-0.2 0.5-0.2 1 0 0.9 0.6 1.6 0.6 0.8 1.5 0.8 0.6 0 1.2-0.2 0.6-0.2 1.1-0.5 0.6-0.3 0.9-0.5 0.3-0.2 0.3-0.2z"/>
</svg>