<svg version="1.2" xmlns="http://www.w3.org/2000/svg" viewBox="0 0 181 59" width="181" height="59"><style>tspan{white-space:pre}.a{fill:#d4f0f5}.b{fill:#fff}.c{font-size: 17px;fill: #f2f7f4;font-weight: 400;font-family: "CharisSIL", "Charis SIL"}</style><path class="a" d="m28.8 20.2c4 0 7.2-3.2 7.2-7.1 0-4-3.2-7.2-7.2-7.2-3.9 0-7.1 3.2-7.1 7.2 0 3.9 3.2 7.1 7.1 7.1zm0-11c2.2 0 3.9 1.8 3.9 3.9 0 2.1-1.7 3.8-3.9 3.8-2.1 0-3.8-1.7-3.8-3.8 0-2.1 1.7-3.9 3.8-3.9z"/><path class="a" d="m47.6 20.2q-1-1.7-2.4-3.2-0.2 0.1-0.3 0.1-1.8 0.3-3.4 1c-2 0.9-3.8 2.4-5.2 4.3q-1.5 2.1-2.1 4.6 0 0.1 0 0.2v0.2q-0.1 0.2-0.1 0.5l-4.5 23.2q-0.4 0.1-0.8 0.1-0.4 0-0.8-0.1l-4.4-23.2q0-0.3-0.1-0.5v-0.2q0-0.1 0-0.2-0.6-2.5-2.2-4.6c-1.3-1.9-3.1-3.4-5.2-4.3q-1.7-0.8-3.6-1.1-1.4 1.5-2.4 3.2c-2.3 3.6-3.5 7.7-3.5 12 0 12.3 10 22.3 22.2 22.3 12.3 0 22.3-10 22.3-22.3 0-4.3-1.2-8.4-3.5-12zm-37.7 12c0-4.2 1.4-8.2 3.8-11.5q0.1 0 0.1 0c1.9 0.6 3.6 1.9 4.9 3.6q1.1 1.6 1.6 3.6 0 0 0 0.1 0 0.2 0.1 0.5l4.2 22.2c-8.4-2-14.7-9.5-14.7-18.5zm23.2 18.5l4.2-22.3q0.1-0.1 0.1-0.4 0-0.1 0-0.1 0.5-2 1.6-3.6c1.3-1.7 3-3 5-3.6 2.4 3.3 3.8 7.3 3.8 11.5 0 9-6.3 16.5-14.7 18.5z"/><path class="b" d="m28.8 24.6c0.6 0 1-0.5 1-1 0-0.6-0.4-1-1-1-0.5 0-0.9 0.4-0.9 1 0 0.5 0.4 1 0.9 1z"/><path class="b" d="m28.8 28.8c0.7 0 1.3-0.5 1.3-1.2 0-0.7-0.6-1.2-1.3-1.2-0.6 0-1.2 0.5-1.2 1.2 0 0.7 0.6 1.2 1.2 1.2z"/><path class="b" d="m28.8 30.7c-0.8 0-1.6 0.7-1.6 1.6 0 0.9 0.8 1.6 1.6 1.6 0.9 0 1.7-0.7 1.7-1.6 0-0.9-0.8-1.6-1.7-1.6z"/><path class="b" d="m28.8 40c-0.5 0-0.9 0.5-0.9 1 0 0.5 0.4 1 0.9 1 0.6 0 1-0.5 1-1 0-0.5-0.4-1-1-1z"/><path class="b" d="m28.8 35.8c-0.6 0-1.2 0.5-1.2 1.2 0 0.6 0.6 1.2 1.2 1.2 0.7 0 1.3-0.6 1.3-1.2 0-0.7-0.6-1.2-1.3-1.2z"/><text style="transform:matrix(1,0,0,1,60,29)" ><tspan x="0" y="0" class="c">AURA </tspan><tspan  y="0" class="c">
</tspan><tspan x="0" y="20.4" class="c">Physiotherapy
</tspan></text></svg>