<?xml version="1.0" encoding="utf-8"?>
<!-- Generator: Adobe Illustrator 27.3.1, SVG Export Plug-In . SVG Version: 6.00 Build 0)  -->
<svg version="1.1" id="Layer_1" xmlns="http://www.w3.org/2000/svg" xmlns:xlink="http://www.w3.org/1999/xlink" x="0px" y="0px"
	 viewBox="0 0 131 130.4" style="enable-background:new 0 0 131 130.4;" xml:space="preserve">
<style type="text/css">
	.st0{fill:#D4F0F5;}
	.st1{opacity:0.9;}
	.st2{fill:#F2F7F4;}
	.st3{enable-background:new    ;}
</style>
<g>
	<g>
		<g>
			<path class="st0" d="M30.7,58.6c1.1-0.6,2.3-0.9,3.7-0.6c2.2,0.5,3,2,2.2,3.7c-0.8,1.7-2.3,2.8-4.5,3.1c-0.9,0.2-1.9,0-2.7-0.5
				c-0.3-0.2-0.6-0.5-0.9-0.8c2.3,1.6,5.8-0.3,6.1-2.3c0.3-1.4-0.8-2.7-2.3-2.7C31.8,58.5,31.4,58.6,30.7,58.6z"/>
		</g>
		<g>
			<path class="st0" d="M35.4,56.3c-1.6-0.5-2.8,0.2-4.1,0.8c0.3-0.3,0.6-0.6,0.9-0.8c1.1-0.8,2.2-1.4,3.7-1.4c0.8,0,1.4,0.3,2,0.8
				c0.2,0.2,0.2,0.3,0.2,0.5c-0.3,0.9-0.8,1.7-1.7,2.2c-0.6-0.5-1.4-0.8-2.5-0.8C34.5,57.1,35,56.8,35.4,56.3z"/>
		</g>
		<g>
			<path class="st0" d="M34.8,64.9c1.1-0.3,2-0.8,2.8-1.4c0.9-0.9,1.6-1.9,1.4-3.3c-0.2-0.6-0.5-1.2-1.1-1.7l-0.2-0.2
				c1.6,0.2,2.8,1.6,2.5,2.8C40,63,38.6,64,36.7,64.6C36.2,64.9,35.4,64.9,34.8,64.9L34.8,64.9z"/>
		</g>
		<g>
			<path class="st0" d="M32.3,62.6c-1.1,0.9-2.8,0.6-3.4-0.3c-0.3-0.6-0.2-1.2,0.2-1.7c0.8-1.1,2.3-1.4,3.6-0.8
				c-0.8-0.2-1.6,0-2.2,0.5s-0.8,1.2-0.5,1.9c0.3,0.6,1.1,0.8,1.9,0.6C32.2,62.6,32.3,62.6,32.3,62.6z"/>
		</g>
		<g>
			<path class="st0" d="M39.2,55.5c-0.8,0-1.4-0.5-1.4-1.2c0-0.6,0.5-1.1,1.2-1.1c0.6,0,1.2,0.6,1.4,1.2
				C40.4,55.1,40,55.5,39.2,55.5z"/>
		</g>
	</g>
	<g>
		<g>
			<path id="SVGID_00000114756609930806243000000007446285200662380454_" class="st0" d="M98.6,54.9c-0.3-0.2-0.6-0.3-0.8-0.8
				c-0.3,0.2-0.6,0.2-0.9,0.2s-0.5,0-0.8,0c-0.2,0-0.3,0.2-0.3,0.3v0.2c-0.2,0.2-0.2,0.5-0.2,0.6l0,0c-0.2,0-0.2-0.2-0.2-0.3
				c0-0.2,0-0.2,0-0.3c-0.2,0-0.2,0-0.2,0.2c-0.2,0.2-0.2,0.2-0.3,0.3h-0.2v-0.2v-0.2l0,0c0-0.3,0.2-0.8,0.5-0.9
				c0.8-0.3,1.6-0.8,2.5-0.9c0.2,0,0.3,0,0.5,0c0.2,0,0.2,0.2,0.3,0.2c0.5,0.2,0.8,0.3,1.1,0.6C99.9,54,99.9,54,100,54
				c0.3,0.2,0.5,0.3,0.5,0.6v0.2c0.2,0,0.2-0.2,0.2-0.3c0-0.2,0-0.2,0-0.3c0-0.5,0.5-0.8,0.9-0.6c0.2,0,0.3,0.2,0.5,0.2h0.2l0,0
				c0,0.2,0.2,0.2,0.2,0.3c0.2,0.2,0,0.3-0.2,0.5l0,0c0,0.2-0.2,0.2-0.2,0.3c0,0.2,0,0.2,0,0.3c0,0.2,0,0.2-0.2,0.3l-0.2,0.2
				c0,0,0,0.2-0.2,0.3c0,0.2-0.2,0.2-0.2,0l-0.2-0.2c-0.2,0-0.2,0-0.3,0.2c0.2,0.2,0.2,0.3,0.3,0.6c0,0,0,0.2,0.2,0.2
				c0.2,0.2,0.2,0.3,0.3,0.3c0.2,0.2,0.2,0.3,0.2,0.5c0.2-0.2,0.3-0.3,0.5-0.5s0.2-0.3,0.3-0.3c0.2-0.2,0.2-0.3,0.2-0.5V56
				c0-0.2,0-0.5-0.2-0.6c0.2,0,0.2,0,0.3,0c0,0,0,0.2,0.2,0.2h0.2c0,0,0,0,0-0.2s0-0.3,0-0.5v-0.2h0.2l0.2,0.2
				c0.2,0.3,0.2,0.8,0,1.1c-0.2,0.3-0.3,0.8-0.5,1.1c-0.2,0.3-0.3,0.6-0.5,0.9l-0.2,0.2c-0.2,0.2-0.3,0.2-0.5,0
				c-0.3-0.2-0.6-0.5-0.8-0.6c-0.2-0.2-0.3-0.5-0.5-0.6c-0.2,0.2-0.5,0.3-0.8,0.3c-0.2,0-0.2,0.2-0.2,0.2c-0.2,0.2-0.2,0.3-0.3,0.3
				C99,58,99,58.2,98.8,58.2c0.2,0,0.3,0.2,0.5,0.2c0.5,0.2,0.8,0.5,1.1,0.6c0.2,0.2,0.3,0.3,0.5,0.5c0.3,0.3,0.3,0.8,0,1.1
				c-0.3,0.2-0.6,0.3-0.9,0.5c-0.5,0.2-0.9,0.5-1.4,0.6h-0.2c-0.5,0.3-0.6,0.8-0.5,1.4c0,0,0,0.2,0.2,0.2v0.2h-0.2
				c-0.3-0.2-0.5-0.3-0.6-0.6v-0.2c0-0.2-0.2-0.5-0.2-0.6c0-0.2-0.2-0.2-0.2-0.3c0-0.2,0-0.3,0.2-0.3h0.2c0.5,0,0.9-0.3,1.2-0.8
				c0.2-0.3,0.3-0.5,0.6-0.6c0,0,0.2,0,0.2-0.2c-0.5,0-0.9-0.2-1.4-0.3c-0.2,0.2-0.3,0.5-0.5,0.6c-0.2,0.2-0.3,0.3-0.5,0.6
				c-0.2,0.2-0.3,0.5-0.6,0.6c-0.2,0.2-0.5,0.3-0.6,0.5c-0.6,0.3-1.4,0.8-2,1.1c-0.3,0.2-0.5,0.3-0.8,0.6c-0.2,0.2-0.3,0.5-0.5,0.6
				c-0.2,0.2-0.2,0.3-0.2,0.6v0.2h-0.2c-0.2-0.3-0.2-0.5-0.2-0.8c0.2-0.3,0.2-0.8,0.2-1.1s0.2-0.5,0.3-0.5c0.2,0,0.3,0,0.5-0.2
				c0.3-0.2,0.6-0.5,0.9-0.8c0.3-0.5,0.6-0.6,1.1-0.8c0.3-0.2,0.5-0.3,0.6-0.6c0.3-0.6,0.6-1.2,0.9-1.7c0,0,0,0,0-0.2
				c0-0.5,0.2-0.8,0.5-1.1c0.2-0.2,0.2-0.2,0.3-0.2c0.2-0.2,0.3-0.3,0.5-0.5c0.2-0.3,0.2-0.5,0.3-0.8c0-0.2,0.2-0.2,0.2-0.3
				C98.3,55.4,98.5,55.1,98.6,54.9z"/>
		</g>
	</g>
	<g>
		<g>
			<path class="st0" d="M56,79.7l-1.4-0.9l-0.8,1.1l1.6,1.1l-0.3,0.5l-2-1.4l2.2-3.3l2,1.4L57,78.5l-1.6-1.1l-0.6,1.1l1.4,0.9
				L56,79.7z"/>
			<path class="st0" d="M56.2,81.4c0.2,0.3,0.5,0.5,0.8,0.6c0.5,0.3,0.9,0.2,1.1-0.2c0.2-0.3,0-0.6-0.5-1.1
				c-0.6-0.5-0.8-1.1-0.6-1.6c0.3-0.6,0.9-0.6,1.7-0.3c0.5,0.2,0.6,0.5,0.8,0.6l-0.3,0.3c-0.2-0.2-0.3-0.3-0.6-0.5
				c-0.6-0.3-0.9-0.2-1.1,0.2c-0.2,0.3,0,0.6,0.5,1.1c0.6,0.6,0.8,1.1,0.5,1.6s-0.9,0.8-1.9,0.3c-0.3-0.2-0.8-0.5-0.9-0.8L56.2,81.4
				z"/>
			<path class="st0" d="M61.2,80.3L59.9,80l0.2-0.5l3.1,0.9L63.1,81l-1.2-0.5l-1.1,3.3l-0.6-0.2L61.2,80.3z"/>
			<path class="st0" d="M67,81.4c0-0.6-0.5-0.6-0.8-0.8c-0.6,0-0.8,0.8-1.2,0.8c-0.2,0-0.3-0.2-0.3-0.3c0.5-0.3,0.9-0.5,1.4-0.5
				c0.9,0,1.4,0.5,1.4,1.2c0,1.1-2.3,1.6-2.8,2.5h1.2c0.8,0,1.2,0,1.6-0.5h0.2l-0.3,0.9l-3-0.2C64.5,83.5,67,82.5,67,81.4z"/>
			<path class="st0" d="M67.9,82.8c-0.3-1.2,0.3-2.2,1.6-2.5c1.2-0.3,2.2,0.5,2.3,1.7c0.3,1.2-0.3,2.2-1.6,2.5
				C69.1,84.7,68.2,84.1,67.9,82.8z M71.5,82.5c-0.3-1.2-1.2-2.2-2-2c-0.6,0.2-1.1,0.6-0.8,1.7c0.3,1.2,1.2,2.2,2,2
				C71.3,84.2,71.6,83.6,71.5,82.5z"/>
			<path class="st0" d="M74.1,79.4c-0.3-0.5-0.8-0.5-0.9-0.3c-0.6,0.3-0.3,1.1-0.8,1.2c-0.2,0.2-0.5,0-0.5-0.2
				c0.2-0.5,0.6-0.9,1.1-1.1c0.8-0.3,1.4-0.3,1.7,0.5c0.5,0.9-1.2,2.5-1.4,3.6l1.1-0.5c0.6-0.3,1.1-0.6,1.1-1.1h0.2l0.2,0.9
				l-2.5,1.2C72.9,82.4,74.6,80.5,74.1,79.4z"/>
			<path class="st0" d="M78.2,80.8c-0.5,0.3-1.1,0.6-1.6,0.6c0-0.2,0-0.3,0.2-0.5c0.3-0.3,0.8,0.3,1.6-0.3c0.2-0.2,0.6-0.9,0.2-1.6
				c-0.6-0.8-1.9-0.9-2.7,0.6h-0.2l-0.9-1.6l0.9-0.8c0.6-0.5,0.9-0.8,0.8-1.4h0.2l0.5,0.9l-1.9,1.6l0.6,1.1c0.8-1.4,2.3-1.9,3-1.1
				C79.4,79.4,78.8,80.3,78.2,80.8z"/>
		</g>
		<g>
			<path class="st0" d="M56,79.7l-1.4-0.9l-0.8,1.1l1.6,1.1l-0.3,0.5l-2-1.4l2.2-3.3l2,1.4L57,78.5l-1.6-1.1l-0.6,1.1l1.4,0.9
				L56,79.7z"/>
			<path class="st0" d="M56.2,81.4c0.2,0.3,0.5,0.5,0.8,0.6c0.5,0.3,0.9,0.2,1.1-0.2c0.2-0.3,0-0.6-0.5-1.1
				c-0.6-0.5-0.8-1.1-0.6-1.6c0.3-0.6,0.9-0.6,1.7-0.3c0.5,0.2,0.6,0.5,0.8,0.6l-0.3,0.3c-0.2-0.2-0.3-0.3-0.6-0.5
				c-0.6-0.3-0.9-0.2-1.1,0.2c-0.2,0.3,0,0.6,0.5,1.1c0.6,0.6,0.8,1.1,0.5,1.6s-0.9,0.8-1.9,0.3c-0.3-0.2-0.8-0.5-0.9-0.8L56.2,81.4
				z"/>
			<path class="st0" d="M61.2,80.3L59.9,80l0.2-0.5l3.1,0.9L63.1,81l-1.2-0.5l-1.1,3.3l-0.6-0.2L61.2,80.3z"/>
			<path class="st0" d="M67,81.4c0-0.6-0.5-0.6-0.8-0.8c-0.6,0-0.8,0.8-1.2,0.8c-0.2,0-0.3-0.2-0.3-0.3c0.5-0.3,0.9-0.5,1.4-0.5
				c0.9,0,1.4,0.5,1.4,1.2c0,1.1-2.3,1.6-2.8,2.5h1.2c0.8,0,1.2,0,1.6-0.5h0.2l-0.3,0.9l-3-0.2C64.5,83.5,67,82.5,67,81.4z"/>
			<path class="st0" d="M67.9,82.8c-0.3-1.2,0.3-2.2,1.6-2.5c1.2-0.3,2.2,0.5,2.3,1.7c0.3,1.2-0.3,2.2-1.6,2.5
				C69.1,84.7,68.2,84.1,67.9,82.8z M71.5,82.5c-0.3-1.2-1.2-2.2-2-2c-0.6,0.2-1.1,0.6-0.8,1.7c0.3,1.2,1.2,2.2,2,2
				C71.3,84.2,71.6,83.6,71.5,82.5z"/>
			<path class="st0" d="M74.1,79.4c-0.3-0.5-0.8-0.5-0.9-0.3c-0.6,0.3-0.3,1.1-0.8,1.2c-0.2,0.2-0.5,0-0.5-0.2
				c0.2-0.5,0.6-0.9,1.1-1.1c0.8-0.3,1.4-0.3,1.7,0.5c0.5,0.9-1.2,2.5-1.4,3.6l1.1-0.5c0.6-0.3,1.1-0.6,1.1-1.1h0.2l0.2,0.9
				l-2.5,1.2C72.9,82.4,74.6,80.5,74.1,79.4z"/>
			<path class="st0" d="M78.2,80.8c-0.5,0.3-1.1,0.6-1.6,0.6c0-0.2,0-0.3,0.2-0.5c0.3-0.3,0.8,0.3,1.6-0.3c0.2-0.2,0.6-0.9,0.2-1.6
				c-0.6-0.8-1.9-0.9-2.7,0.6h-0.2l-0.9-1.6l0.9-0.8c0.6-0.5,0.9-0.8,0.8-1.4h0.2l0.5,0.9l-1.9,1.6l0.6,1.1c0.8-1.4,2.3-1.9,3-1.1
				C79.4,79.4,78.8,80.3,78.2,80.8z"/>
		</g>
	</g>
	<g>
		<path class="st0" d="M48.2,54h0.2l3.7,8.7c0.5,1.1,0.8,1.9,1.2,2v0.2h-3.3v-0.2c0.5-0.2,0.6-0.9,0.3-1.6l-0.8-2h-4.2V61l-0.9,2.2
			c-0.3,0.6,0,1.4,0.5,1.6v0.2h-2.2v-0.2c0.6-0.5,0.9-0.6,1.4-1.6L48.2,54z M49.5,60.8l-2-4.8l-2,4.7L49.5,60.8z"/>
		<path class="st0" d="M62.9,55.5c0-0.6-0.5-1.1-1.1-1.4V54H64v0.2c-0.6,0.3-0.9,0.8-0.9,1.4c0,0.3,0,0.8,0,1.1V59
			c0,0.9,0,1.7,0,2.7c0,2.2-1.9,3.3-4.2,3.3s-4.5-1.1-4.5-3.3v-6.1c0-0.6-0.2-0.9-0.6-1.4V54h3.1v0.2c-0.5,0.5-0.6,0.8-0.6,1.4v6.2
			c0,1.6,0.8,2.8,2.8,2.8c1.2,0,2.7-0.5,3.3-1.4c0.6-0.6,0.6-1.2,0.6-1.9C62.9,59.3,62.9,57.4,62.9,55.5z"/>
		<path class="st0" d="M74.5,57.1c0,2-1.2,2.8-3,3c1.2,0.3,1.6,1.4,2,2.7c0.2,0.8,0.8,1.4,1.4,1.4c0.2,0,0.6,0,0.9-0.5H76
			c-0.5,1.1-1.7,1.4-2.5,1.2c-1.2-0.2-1.6-1.2-1.9-2.5c-0.3-0.9-0.6-2-1.6-2.3h-1.7v3.1c0,0.6,0.2,0.9,0.6,1.4v0.2h-3.1v-0.2
			c0.6-0.5,0.6-0.8,0.6-1.4v-8c0-0.5-0.2-0.8-0.6-1.2v-0.2h4.4C72.6,54,74.5,54.7,74.5,57.1z M68.2,59.9h1.6c1.6,0,2.8-1.1,2.8-2.7
			c0-1.9-1.4-3-3-3h-1.4V59.9z"/>
		<path class="st0" d="M83.3,54h0.2l3.7,8.7c0.5,1.1,0.8,1.9,1.2,2v0.2h-3.3v-0.2c0.5-0.2,0.6-0.9,0.3-1.6l-0.8-2h-4.2V61l-0.9,2.2
			c-0.3,0.6,0,1.4,0.5,1.6v0.2h-2.2v-0.2c0.6-0.5,0.9-0.6,1.4-1.6L83.3,54z M84.6,60.8l-2-4.8l-2,4.7L84.6,60.8z"/>
	</g>
	<g>
		<g>
			<path class="st0" d="M56,42.1c0.8-0.8,1.7-1.6,2.5-2.3c-1.1,0.6-1.9,1.2-2.8,1.9s-1.9,1.2-3,1.9c2,0.6,6.1-2.2,6.7-4.2
				C58.4,40.5,57.4,41.6,56,42.1z"/>
		</g>
		<g>
			<path class="st0" d="M38.2,47.9c6.7,0,13.6,0,20.3,0c0.2,0,0.2,0,0.3,0c-0.9-0.6-1.7-0.9-2.8-0.9c-5.8,0-11.5,0-17.3,0
				c-0.3,0-0.8,0-1.1,0c-1.2-0.2-2.3-0.9-2.8-2.2c-0.5-1.4-0.5-2.7,0.5-3.9c1.2-1.7,3.9-1.6,5,0.2c0.6,0.9,0.5,2.2-0.3,3
				s-2.2,0.6-2.5-0.3c0.2,0,0.3,0,0.5,0c0.6,0,1.1-0.2,1.1-0.8c0-0.3,0-0.9-0.3-1.2c-0.3-0.5-0.9-0.5-1.4-0.2
				c-0.8,0.3-1.2,1.2-0.9,2.2c0.3,0.9,0.9,1.7,1.9,1.9c1.1,0.2,2.3-0.5,2.8-1.4c1.2-2,0.2-4.7-2.2-5.3c-2.8-0.8-5.5,1.2-5.5,4.4
				C33.4,45.8,35.4,47.9,38.2,47.9z"/>
		</g>
		<g>
			<path class="st0" d="M44.5,36.6c-2.7-0.2-5.3-0.6-8-1.6c1.2,2,2.8,3.3,5,3.6c2.2,0.5,4.2,0,6.2-0.6c1.6-0.5,3.1-1.2,4.5-2
				C49.8,36.5,47.1,36.6,44.5,36.6z"/>
		</g>
		<g>
			<path class="st0" d="M33.7,29.5c0.8,1.9,2,3.1,3.6,3.9c2.7,1.4,5.5,1.9,8.4,1.7c1.2-0.2,2.5-0.3,3.9-0.5v-0.2
				C44,34,38.7,32.4,33.7,29.5z"/>
		</g>
		<g>
			<path class="st0" d="M61.3,35.5c-1.2,0.6-2.3,1.1-3.4,1.7C59.2,37.7,60.6,37.1,61.3,35.5z"/>
		</g>
		<g>
			<path class="st0" d="M72.3,37.9c-0.6-0.6-1.2-1.1-2-1.6C70.4,37.4,71.2,38,72.3,37.9z"/>
		</g>
		<g>
			<path class="st0" d="M89.3,42.9c0.2-0.5,0-0.6-0.5-0.6c-1.7-0.2-3.3,0.3-4.4,1.7c-0.5,0.5-0.6,1.1-1.1,1.7
				C85.8,46.5,88.5,45.1,89.3,42.9z"/>
		</g>
		<g>
			<path class="st0" d="M75.2,38.5c1.4,2,6.2,4.7,8.4,3.6c-2.5-1.2-4.8-2.3-7.3-3.6l0,0c1.1,0.8,2.3,1.6,3.4,2.3V41
				C78.2,40.2,76.6,39.5,75.2,38.5z"/>
		</g>
		<g>
			<path class="st0" d="M60.4,42.6c0.9,0.8,1.9,1.4,2.8,2c0.2,0,0.3,0.2,0.3,0c0.6-0.5,1.4-0.8,2-1.4c-0.6-0.3-1.1-0.5-1.6-0.8
				c-2-1.1-2.3-1.7-1.7-4.1c-1.2,0.2-2.2,0.5-2.7,1.6C59.3,41,59.8,41.9,60.4,42.6z"/>
		</g>
		<g>
			<path class="st0" d="M62.4,36.3c-0.6,0.5-1.2,1.1-2,1.7C61.7,38,62.3,37.4,62.4,36.3z"/>
		</g>
		<g>
			<path class="st0" d="M57.7,31.6c-2.7-0.5-5.5-0.8-8.3-1.2C50.7,32.7,56.2,32.7,57.7,31.6z"/>
		</g>
		<g>
			<path class="st0" d="M78.5,37.9C78.5,37.9,78.4,37.9,78.5,37.9c0.6,0.5,1.2,0.9,1.9,1.2c2,1.1,4.1,1.9,6.4,1.7
				c0.6,0,1.2-0.3,1.7-0.5v-0.2c-3-0.5-5.9-1.4-8.7-2.5v0.2c1.4,0.6,2.8,1.2,4.1,2v0.2C82.1,39.3,80.2,38.7,78.5,37.9z"/>
		</g>
		<g>
			<path class="st0" d="M59.2,32.7c-2.5,0.2-5.2,0.2-7.6,0.3C52.8,34.5,57,34.5,59.2,32.7z"/>
		</g>
		<g>
			<path class="st0" d="M72.9,40.1c-0.3-0.9-1.6-1.6-2.7-1.6c0,0.2,0,0.2,0.2,0.3c0.6,1.4,0.3,2.2-0.9,3.1c-0.3,0.3-0.6,0.5-0.9,0.6
				c-1.1,0.6-2,1.1-3.1,1.7c-1.2,0.8-2.5,1.6-3.4,2.7c-0.5,0.5-0.6,1.1-1.1,1.7l0.2,0.2c0.6,0,1.1,0,1.7,0c0.5,0,0.8-0.2,1.1-0.5
				c0.3-0.5,0.6-0.8,1.1-1.1c1.4-0.8,2.8-1.6,4.1-2.3c1.1-0.6,2.2-1.4,3.3-2.2C72.9,42.1,73.4,41.2,72.9,40.1z"/>
		</g>
		<g>
			<path class="st0" d="M30.4,38c-1.2,2.2-0.3,5.5,1.7,6.4C33.4,42.3,32.6,39,30.4,38z"/>
		</g>
		<g>
			<path class="st0" d="M35.1,28.5c2.5,2,5.5,3.1,8.6,3.7c1.7,0.3,3.3,0.3,5.2,0c-6.7-1.6-12.3-4.7-17.5-9.1c0,0.3,0.2,0.3,0.2,0.5
				C32.3,25.6,33.6,27.3,35.1,28.5z"/>
		</g>
		<g>
			<path class="st0" d="M69.6,48.8c0.8,0,1.4,0,2.2,0c0-0.2,0-0.3-0.2-0.5c-0.5-1.2-1.4-2-2.3-2.8c-0.2-0.2-0.3-0.2-0.5-0.2
				c-0.6,0.3-1.4,0.6-2,0.9c0.8,0.8,1.6,1.4,2.2,2.2C69.3,48.8,69.5,48.8,69.6,48.8z"/>
		</g>
		<g>
			<path class="st0" d="M100.4,47.4c2.3,0.8,5.2-0.9,5.8-3.3C103.9,43.2,100.5,45.2,100.4,47.4z"/>
		</g>
		<g>
			<path class="st0" d="M66.2,47.1c-0.5,0.3-1.1,0.8-1.6,1.1c-0.3,0.3-0.2,0.8,0.2,0.8c1.1,0,2,0,3.3,0c-0.2-0.5-0.3-0.8-0.5-0.9
				c-0.3-0.3-0.8-0.6-1.1-0.8C66.5,47.1,66.3,46.9,66.2,47.1z"/>
		</g>
		<g>
			<path class="st0" d="M60.4,34.8c-1.6,0.5-3.3,1.1-4.8,1.6C57.1,37.3,59.8,36.3,60.4,34.8z"/>
		</g>
		<g>
			<path class="st0" d="M59.6,34c-2,0.3-3.9,0.6-5.9,0.9C54.9,36.2,58.2,35.5,59.6,34z"/>
		</g>
		<g>
			<path class="st0" d="M43.5,42.9c0.6,2.2,3.4,3.6,5.6,3c-0.6-2.3-3-3.9-5.3-3.4C43.5,42.4,43.4,42.6,43.5,42.9z"/>
		</g>
		<g>
			<path class="st0" d="M57.4,38.7c-1.4,0.8-2.8,1.6-4.2,2.3c0,0,0-0.2-0.2-0.2l3.1-2c0,0,0,0,0-0.2c-2.3,1.1-4.7,2.3-7,3.4
				C51.4,43.2,56.2,40.5,57.4,38.7z"/>
		</g>
		<g>
			<path class="st0" d="M48.5,39.3c-1.4,0.5-2.8,0.8-4.4,1.1c1.9,1.2,8.1-0.3,9.7-2.3c-1.7,0.8-3.4,1.6-5.2,1.9
				c1.2-0.6,2.7-1.2,3.9-1.9C51.4,38.4,49.9,38.8,48.5,39.3z"/>
		</g>
		<g>
			<path class="st0" d="M74.8,37.3c-1.1-0.6-2.2-1.1-3.4-1.7C72,37,73.7,37.9,74.8,37.3z"/>
		</g>
		<g>
			<path class="st0" d="M105.7,48.2c-0.6,0.8-1.2,1.2-2.3,1.2c-24.8,0-49.5,0-74.3,0c-0.8,0-1.4-0.2-1.9-0.9c0-0.2-0.2-0.2-0.2-0.3
				c-1.2,0.8-2.3,1.4-3.6,2.2h85.8C108,49.8,106.9,49,105.7,48.2z"/>
		</g>
		<g>
			<path class="st0" d="M32.3,47.4v-0.2c0-0.2,0-0.3-0.2-0.5c-0.9-1.7-2.3-2.8-4.4-2.8c-0.3,0-0.8,0.2-1.1,0.2
				c0.2,0.3,0.2,0.8,0.5,1.1C27.9,47.1,30.4,48,32.3,47.4z"/>
		</g>
		<g>
			<path class="st0" d="M62.3,28.5c0.6,0,1.1,0,1.9,0c0,0.6,0,1.1,0,1.6c0.2,3.7,0.2,7.6,0.3,11.4c0,0.5,0.2,0.6,0.5,0.9
				c0.9,0.6,1.9,0.6,2.8,0l0,0c0.3-0.2,0.5-0.5,0.5-0.8c0-1.7,0.2-3.6,0.2-5.3c0-2.3,0.2-4.7,0.2-7c0-0.6,0.2-0.8,0.8-0.6
				c0.3,0,0.8,0,1.1,0c0.6,0,0.9-0.3,1.1-0.8c0-0.6-0.3-0.9-0.9-0.9c-2.8,0-5.5,0-8.3,0c-0.6,0-0.9,0.3-0.9,0.9
				C61.3,28.2,61.7,28.5,62.3,28.5z"/>
		</g>
		<g>
			<path class="st0" d="M33.2,22.6c2.7,2.5,5.8,3.9,9.2,4.7c3.1,0.8,6.2,1.4,9.5,2.2c1.1,0.3,2.2,0.3,3.3,0.6
				c-0.9-0.6-1.9-1.2-2.8-1.7c-0.2,0-0.2,0-0.3-0.2c-1.2-0.3-2.5-0.6-3.6-0.9c-5.2-1.6-10-4.1-14.2-7.3c-1.7-1.6-3.3-3-5-4.4
				c0,0.2,0,0.2,0,0.3C30.1,18.5,31.4,20.7,33.2,22.6z"/>
		</g>
		<g>
			<path class="st0" d="M63.2,29.9c0-0.2-0.3-0.3-0.5-0.3c-3.4-0.3-6.7-1.1-9.8-2.3c3,2.3,6.6,3.6,10.3,4.5
				C63.2,31.2,63.2,30.6,63.2,29.9z"/>
		</g>
		<g>
			<path class="st0" d="M63.5,25.7c0.9,0,1.9,0,2.8,0c0.9,0,1.9,0,2.8,0c0.5,0,0.8-0.2,0.9-0.6c0.6-1.2,0.8-2.5,0.2-3.7
				c-0.8-2.2-3.4-3.3-5.8-2.3c-2.3,1.1-3.3,3.9-2,6.1C62.7,25.6,63.1,25.7,63.5,25.7z"/>
		</g>
		<g>
			<path class="st0" d="M79.1,34.8c-2-0.3-4.1-0.6-6.1-0.9C74.6,35.5,77.7,36.2,79.1,34.8z"/>
		</g>
		<g>
			<path class="st0" d="M96.1,34.9c-5.3,1.9-10.5,2-15.9,1.1c0,0,0,0.2-0.2,0.2c1.2,0.6,2.5,1.1,3.7,1.7c2.2,0.8,4.5,1.2,6.9,0.9
				C93.2,38.4,95.1,37.1,96.1,34.9z"/>
		</g>
		<g>
			<path class="st0" d="M77.1,36.3c-1.7-0.5-3.3-1.1-5-1.7C73.2,36.5,76,37.3,77.1,36.3z"/>
		</g>
		<g>
			<path class="st0" d="M81.2,33.1c-2.5-0.2-5.2-0.2-7.6-0.3C75.5,34.3,80.1,34.6,81.2,33.1z"/>
		</g>
		<g>
			<path class="st0" d="M83.2,30.4c-2.8,0.5-5.6,0.9-8.4,1.2C77.3,32.9,82.1,32.4,83.2,30.4z"/>
		</g>
		<g>
			<path class="st0" d="M99.1,29.5c-5,3-10.5,4.5-16.2,5.2c0.3,0.2,0.3,0.2,0.5,0.2c1.9,0.5,3.7,0.6,5.6,0.6c3-0.2,5.8-0.8,8.1-2.8
				C98,31.5,98.6,30.6,99.1,29.5z"/>
		</g>
		<g>
			<path class="st0" d="M94.4,47.9c3.1,0,5.2-2.5,4.7-5.5c-0.5-3.1-3.7-4.8-6.4-3.3c-1.2,0.8-1.9,2-1.7,3.4c0.2,1.2,0.8,2.2,2,2.7
				c0.9,0.3,1.9,0.3,2.8-0.5c0.6-0.6,0.8-1.4,0.5-2.3c-0.3-0.8-0.9-1.2-1.7-1.1c-0.6,0-0.9,0.5-1.1,1.1c0,0.6,0.3,1.1,0.9,1.2
				c0.3,0,0.5,0,0.8,0c0,0,0,0.2,0.2,0.2c-0.3,0.2-0.5,0.5-0.8,0.5c-0.9,0.3-1.9-0.3-2.2-1.2c-0.6-1.9,0.9-3.9,3.1-3.4
				c2.2,0.3,3.4,2.8,2.5,5c-0.8,1.7-2,2.2-3.7,2.2c-5.9,0-11.9,0-17.8,0c-0.9,0-1.7,0.5-2.7,0.9c0.3,0,0.3,0,0.5,0
				C81,47.9,87.7,47.9,94.4,47.9z"/>
		</g>
		<g>
			<path class="st0" d="M69.5,30.1c0,0.6,0,1.1,0,1.9c3.9-0.9,7.5-2.2,10.5-4.7c-0.2,0-0.3,0.2-0.5,0.2c-0.2,0-0.3,0.2-0.5,0.2
				c-3,1.1-5.9,1.7-8.9,2C69.8,29.6,69.5,29.6,69.5,30.1z"/>
		</g>
		<g>
			<path class="st0" d="M77.9,29.9c2.5-0.5,5-0.8,7.3-1.4c3.7-0.8,7.5-1.7,10.8-3.6c3.6-2,6.1-4.8,7.2-8.9c0-0.2,0.2-0.5,0.2-0.8
				c-0.3,0.2-0.3,0.3-0.5,0.3c-1.4,1.2-2.8,2.7-4.4,3.9c-5,4.1-10.6,6.9-16.9,8.3c-1.6,0.3-2.8,1.6-4.2,2
				C77.6,29.9,77.7,29.9,77.9,29.9z"/>
		</g>
		<g>
			<path class="st0" d="M102.2,38c-2.2,0.9-3.1,4.5-1.7,6.4C102.7,43.5,103.6,40.1,102.2,38z"/>
		</g>
		<g>
			<path class="st0" d="M83.8,32.3c0.9,0.2,2,0.2,3,0.2c0.9,0,1.9-0.2,2.7-0.3c3.4-0.6,6.7-2,9.2-4.7c1.2-1.2,2-2.7,2.5-4.4
				C96.1,27.4,90.4,30.7,83.8,32.3z"/>
		</g>
		<g>
			<path class="st0" d="M108.8,67.5c-5.6,0-11.2,0-17,0c-1.4,0-2.7,0-4.1,0c-1.1,0.3-1.6,0.6-1.6,0.6s0.9-0.2,2.5-0.6
				c-21.7,0-43.4,0-65.1,0v0.2c1.2,0.8,2.3,1.4,3.4,2.2c0.6-1.1,1.6-1.2,2.7-1.2c3.7,0,7.5,0,11.2,0c1.2,0,0.9-0.2,1.4,0.9
				c2,5.8,5.6,10.3,10.8,13.4c5.5,3.4,11.5,4.5,17.8,3.3c9.7-1.9,16.2-7.6,19.7-17c0.2-0.6,0.5-0.8,1.1-0.8c3.7,0,7.5,0,11.4,0
				c1.1,0,2.2,0.2,2.8,1.2c1.2-0.8,2.3-1.4,3.6-2.2C108.9,67.7,108.8,67.5,108.8,67.5z M80.5,68.6c-1.6,3.7-6.4,8.3-13,8.7
				c-7.6,0.6-13.4-4.2-15.5-8.7H80.5z M82.9,79.3c-4.7,4.2-10.1,6.4-16.4,6.6c-13,0-21.4-9.5-23.3-17.2c0.5,0,0.9,0,1.2,0
				c0.2,0,0.3,0.3,0.5,0.6c0.6,1.4,1.4,2.7,2,4.1c0.2,0.2,0.3,0.3,0.6,0.5l0.2-0.2c-0.5-0.8-0.9-1.6-1.2-2.3
				c-0.5-0.8-0.8-1.6-1.1-2.5c1.2-0.3,1.2-0.2,1.7,0.8c0.6,1.1,1.2,2.2,1.9,3.3c0.2,0.2,0.3,0.3,0.6,0.5c0,0,0-0.2,0.2-0.2
				c-0.8-1.4-1.6-2.8-2.3-4.4c1.2-0.3,1.2-0.2,1.7,0.6c0.5,0.9,1.1,2,1.7,3c0.2,0.2,0.5,0.3,0.6,0.5l0.2-0.2
				c-0.8-1.2-1.4-2.5-2.2-3.7c0.9-0.5,1.6-0.3,2,0.5c2.5,4.7,6.2,7.6,11.4,8.7c5,1.1,9.7,0.2,13.9-3c2-1.6,3.7-3.4,5-5.8
				c0.5-0.9,0.8-0.9,2-0.6c-0.8,1.2-1.6,2.5-2.2,3.7c0.3,0.2,0.5,0.2,0.8-0.2c0.6-0.9,1.2-2,1.7-3c0.5-0.8,0.6-0.9,1.7-0.6
				c-0.8,1.4-1.6,2.8-2.3,4.2c0.3,0.3,0.6,0.2,0.8-0.2c0.6-1.1,1.2-2.2,1.9-3.4c0.5-0.8,0.6-0.9,1.6-0.6c-0.5,1.7-1.4,3.1-2.3,4.7
				c0.3,0.3,0.6,0.2,0.8-0.2c0.6-1.2,1.2-2.5,1.9-3.7c0.5-1.1,0.8-1.2,2-0.9C88.3,72.9,86.2,76.4,82.9,79.3z"/>
		</g>
		<g>
			<path class="st0" d="M105.7,48.2c1.2,0.8,2.3,1.4,3.6,2.2c-28.7,0-57.1,0-85.8,0c1.2-0.8,2.3-1.4,3.6-2.2c0,0.2,0.2,0.2,0.2,0.3
				c0.5,0.6,1.1,0.9,1.9,0.9c24.8,0,49.5,0,74.3,0C104.4,49.4,105.2,49.1,105.7,48.2z"/>
		</g>
		<g>
			<path class="st0" d="M64.1,28.5c-0.6,0-1.2,0-1.9,0c-0.6,0-0.9-0.3-0.9-0.9c0-0.5,0.3-0.9,0.9-0.9c2.8,0,5.5,0,8.3,0
				c0.6,0,0.9,0.3,0.9,0.9c0,0.5-0.5,0.8-1.1,0.8c-0.3,0-0.8,0-1.1,0c-0.5,0-0.8,0.2-0.8,0.6c0,2.3-0.2,4.7-0.2,7
				c0,1.7-0.2,3.6-0.2,5.3c0,0.3-0.2,0.6-0.5,0.8l0,0c-0.9,0.8-1.9,0.8-2.8,0c-0.3-0.3-0.5-0.5-0.5-0.9c0-3.7-0.2-7.6-0.3-11.4
				C64.1,29.6,64.1,29.1,64.1,28.5z"/>
		</g>
		<g>
			<path class="st0" d="M103.3,15.4c0,0.3-0.2,0.6-0.2,0.8c-1.1,4.1-3.4,6.9-7.2,8.9c-3.4,1.9-7,2.8-10.8,3.6
				c-2.5,0.5-5,0.9-7.3,1.4c-0.2,0-0.3,0-0.5,0c1.4-0.6,2.7-1.7,4.2-2c6.2-1.4,11.9-4.2,16.9-8.3c1.6-1.2,3-2.5,4.4-3.9
				C103,15.7,103.2,15.6,103.3,15.4z"/>
		</g>
		<g>
			<path class="st0" d="M29.3,15.6c1.7,1.4,3.3,2.8,4.8,4.2c4.2,3.4,8.9,5.9,14.2,7.3c1.2,0.3,2.3,0.6,3.6,0.9c0.2,0,0.2,0,0.3,0.2
				c0.9,0.6,1.9,1.1,2.8,1.7c-1.1-0.2-2.2-0.3-3.3-0.6c-3.1-0.6-6.4-1.2-9.5-2.2c-3.4-0.9-6.6-2.3-9.2-4.7c-1.7-1.7-3-3.9-3.6-6.6
				C29.5,15.9,29.5,15.7,29.3,15.6z"/>
		</g>
		<g>
			<path class="st0" d="M66.3,25.7c-0.9,0-1.9,0-2.8,0c-0.5,0-0.8-0.2-0.9-0.5c-1.2-2.2-0.5-5,1.9-6.2c2.2-1.1,5,0,5.9,2.3
				c0.5,1.2,0.5,2.5-0.2,3.7c-0.2,0.3-0.5,0.6-0.9,0.6C68.4,25.7,67.3,25.7,66.3,25.7z"/>
		</g>
		<g>
			<path class="st0" d="M95.2,43.8c-0.3,0-0.5,0-0.8,0c-0.5-0.2-0.9-0.6-0.9-1.2c0-0.6,0.5-1.1,1.1-1.1c0.8-0.2,1.4,0.3,1.7,1.1
				c0.3,0.9,0.2,1.7-0.5,2.3c-0.8,0.8-1.7,0.8-2.8,0.5c-1.2-0.5-1.9-1.4-2-2.7c-0.2-1.4,0.5-2.7,1.7-3.4c2.7-1.6,5.9,0.2,6.4,3.3
				c0.5,3-1.6,5.5-4.7,5.5c-6.7,0-13.6,0-20.3,0c-0.2,0-0.3,0-0.5,0c0.9-0.5,1.6-1.1,2.7-0.9c5.9,0,11.9,0,17.8,0
				c1.7,0,3.1-0.6,3.7-2.2c0.9-2.2-0.3-4.7-2.5-5c-2-0.3-3.7,1.6-3.1,3.4c0.3,0.9,1.2,1.6,2.2,1.2c0.3,0,0.5-0.3,0.8-0.5
				C95.2,43.8,95.2,43.8,95.2,43.8z"/>
		</g>
		<g>
			<path class="st0" d="M37.5,43.7c0.5,0.9,1.9,1.1,2.5,0.3c0.8-0.8,0.8-2,0.3-3c-1.1-1.7-3.6-1.7-5-0.2c-0.9,1.2-1.1,2.5-0.5,3.9
				c0.5,1.2,1.4,1.9,2.8,2.2c0.3,0,0.8,0,1.1,0c5.8,0,11.5,0,17.3,0c1.1,0,2,0.3,2.8,0.9c-0.2,0-0.3,0-0.3,0c-6.7,0-13.6,0-20.3,0
				c-2.8,0-4.8-2-4.7-4.7c0-3,2.7-5.2,5.5-4.4c2.3,0.6,3.3,3.3,2.2,5.3c-0.5,0.9-1.9,1.6-2.8,1.4c-0.9-0.2-1.7-0.8-1.9-1.9
				c-0.2-0.8,0.3-1.9,0.9-2.2c0.5-0.2,1.1-0.3,1.4,0.2c0.2,0.3,0.3,0.8,0.3,1.2c-0.2,0.5-0.6,0.8-1.1,0.8
				C37.8,43.7,37.6,43.7,37.5,43.7z"/>
		</g>
		<g>
			<path class="st0" d="M60.7,48.7c0.3-0.6,0.6-1.1,1.1-1.7c0.9-1.2,2.2-2,3.4-2.7c1.1-0.6,2-1.1,3.1-1.7c0.3-0.2,0.6-0.3,0.9-0.6
				c1.2-0.9,1.4-1.7,0.9-3.1c0-0.2,0-0.2-0.2-0.3c1.1,0,2.3,0.6,2.7,1.6c0.5,1.1,0,2-0.8,2.7c-0.9,0.8-2.2,1.6-3.3,2.2
				c-1.4,0.8-2.8,1.6-4.1,2.3c-0.5,0.3-0.8,0.6-1.1,1.1c-0.3,0.3-0.6,0.5-1.1,0.5c-0.6,0-1.1,0-1.7,0C60.9,48.8,60.9,48.8,60.7,48.7
				z"/>
		</g>
		<g>
			<path class="st0" d="M101.3,23.2c-0.5,1.7-1.4,3.1-2.5,4.4c-2.5,2.7-5.6,4.1-9.2,4.7c-0.9,0.2-1.9,0.3-2.7,0.3c-0.9,0-2,0-3-0.2
				C90.4,30.7,96.1,27.4,101.3,23.2z"/>
		</g>
		<g>
			<path class="st0" d="M31.5,23.2c5.2,4.4,10.8,7.5,17.5,9.1c-1.9,0.3-3.4,0.3-5.2,0c-3.1-0.5-6.1-1.6-8.6-3.7
				c-1.6-1.4-2.8-3-3.6-4.8C31.5,23.5,31.5,23.4,31.5,23.2z"/>
		</g>
		<g>
			<path class="st0" d="M80.4,36c5.3,0.9,10.6,0.8,15.9-1.1c-1.2,2.2-3,3.4-5.3,3.7c-2.3,0.3-4.7,0-6.9-0.9
				C82.9,37.3,81.6,36.6,80.4,36C80.2,36.2,80.4,36,80.4,36z"/>
		</g>
		<g>
			<path class="st0" d="M52.4,36c-1.4,0.9-3,1.6-4.5,2c-2,0.6-4.2,0.9-6.2,0.6c-2.2-0.5-3.7-1.6-5-3.6c2.7,0.9,5.3,1.4,8,1.6
				C47.1,36.6,49.8,36.5,52.4,36z"/>
		</g>
		<g>
			<path class="st0" d="M99.1,29.5c-0.5,1.2-1.2,2.2-2,3c-2.3,2-5.2,2.7-8.1,2.8c-1.9,0.2-3.7,0-5.6-0.6c-0.2,0-0.2-0.2-0.5-0.2
				C88.8,34,94.1,32.4,99.1,29.5z"/>
		</g>
		<g>
			<path class="st0" d="M49.5,34.6c-1.2,0.2-2.5,0.5-3.9,0.5c-3,0.2-5.8-0.2-8.4-1.7c-1.6-0.9-2.8-2.2-3.6-3.9c5,3,10.3,4.4,15.9,5
				C49.5,34.6,49.5,34.6,49.5,34.6z"/>
		</g>
		<g>
			<path class="st0" d="M62.4,38.5c-0.6,2.2-0.3,3,1.7,4.1c0.5,0.3,0.9,0.5,1.6,0.8c-0.8,0.5-1.4,0.9-2,1.4c-0.2,0-0.3,0-0.3,0
				c-0.9-0.6-2-1.2-2.8-2c-0.8-0.6-1.1-1.6-0.6-2.5C60.4,39.1,61.3,38.7,62.4,38.5z"/>
		</g>
		<g>
			<path class="st0" d="M69.5,32c0-0.6,0-1.2,0-1.9c0-0.5,0.3-0.3,0.6-0.5c3.1-0.3,6.1-0.9,8.9-2c0.2,0,0.3-0.2,0.5-0.2
				c0.2,0,0.3-0.2,0.5-0.2C76.9,29.8,73.4,31,69.5,32z"/>
		</g>
		<g>
			<path class="st0" d="M52.9,27.4c3.1,1.2,6.4,2,9.8,2.3c0.2,0,0.5,0.2,0.5,0.3c0,0.6,0,1.2,0,1.9C59.5,31,55.9,29.8,52.9,27.4z"/>
		</g>
		<g>
			<path class="st0" d="M92.9,71c1.4-1.9,5.3-1.9,6.7,0C98,72.7,94.6,72.7,92.9,71z"/>
		</g>
		<g>
			<path class="st0" d="M102.2,38c1.4,2,0.5,5.6-1.7,6.4C99.1,42.6,100,39,102.2,38z"/>
		</g>
		<g>
			<path class="st0" d="M106.1,44.1c-0.6,2.5-3.4,4.1-5.8,3.3C100.5,45.2,103.9,43.2,106.1,44.1z"/>
		</g>
		<g>
			<path class="st0" d="M83.3,45.8c0.3-0.6,0.6-1.2,1.1-1.7c1.1-1.4,2.7-1.9,4.4-1.7c0.5,0,0.6,0.2,0.5,0.6
				C88.5,45.1,85.8,46.5,83.3,45.8z"/>
		</g>
		<g>
			<path class="st0" d="M92.9,72.5c2.3-0.3,4.8,2.2,4.7,4.7C95.5,77.7,92.7,75,92.9,72.5z"/>
		</g>
		<g>
			<path class="st0" d="M91.3,79.1c-1.9-1.6-1.9-5,0-6.7C93,73.8,93.3,77.4,91.3,79.1z"/>
		</g>
		<g>
			<path class="st0" d="M49.2,45.8c-2.2,0.6-5-0.8-5.6-3c-0.2-0.3,0-0.5,0.3-0.5C46.2,41.9,48.5,43.5,49.2,45.8z"/>
		</g>
		<g>
			<path class="st0" d="M32.3,47.4c-1.7,0.6-4.2-0.5-5.3-2.2c-0.2-0.3-0.3-0.8-0.5-1.1c0.5,0,0.9-0.2,1.2-0.2c2,0.2,3.4,1.1,4.4,2.8
				c0,0.2,0.2,0.3,0.2,0.5C32.3,47.3,32.3,47.4,32.3,47.4z"/>
		</g>
		<g>
			<path class="st0" d="M35.1,77.1c-0.2-2.3,2.3-4.8,4.5-4.5C40.1,75,37.1,77.5,35.1,77.1z"/>
		</g>
		<g>
			<path class="st0" d="M39.8,70.8c-1.6,1.9-5,1.9-6.6,0C34.5,69.1,38.6,69.1,39.8,70.8z"/>
		</g>
		<g>
			<path class="st0" d="M41.4,72.4c1.7,1.6,1.7,5,0,6.6C39.6,77.8,39.6,73.9,41.4,72.4z"/>
		</g>
		<g>
			<path class="st0" d="M30.4,38c2.2,0.9,3,4.2,1.7,6.4C30.1,43.5,29.2,40.2,30.4,38z"/>
		</g>
		<g>
			<path class="st0" d="M78.5,37.9c1.7,0.6,3.6,1.4,5.3,2v-0.2c-1.4-0.6-2.8-1.2-4.1-2v-0.2c2.8,1.1,5.6,2.2,8.7,2.5v0.2
				c-0.6,0.2-1.1,0.3-1.7,0.5c-2.3,0.2-4.4-0.6-6.4-1.7C79.8,38.8,79.1,38.4,78.5,37.9C78.4,37.9,78.5,37.9,78.5,37.9z"/>
		</g>
		<g>
			<path class="st0" d="M71.8,48.8c-0.8,0-1.6,0-2.2,0c-0.2,0-0.3-0.2-0.5-0.2c-0.8-0.6-1.4-1.4-2.2-2.2c0.6-0.3,1.2-0.6,2-0.9
				c0.2,0,0.3,0,0.5,0.2c0.9,0.8,1.9,1.6,2.3,2.8C71.8,48.5,71.8,48.7,71.8,48.8z"/>
		</g>
		<g>
			<path class="st0" d="M44.3,40.4c1.4-0.3,3-0.8,4.4-1.1c1.4-0.5,2.8-0.9,4.2-1.2c-1.2,0.6-2.7,1.2-3.9,1.9
				c1.7-0.3,3.4-0.9,5.2-1.9C52.4,40.1,46.2,41.6,44.3,40.4z"/>
		</g>
		<g>
			<path class="st0" d="M79.8,40.9c-1.1-0.8-2.3-1.6-3.4-2.3l0,0c2.5,1.2,5,2.5,7.3,3.6c-2.3,1.1-7-1.6-8.4-3.6
				c1.4,0.8,3,1.7,4.4,2.5C79.6,41,79.6,41,79.8,40.9z"/>
		</g>
		<g>
			<path class="st0" d="M56,38.8c-1.1,0.6-2,1.4-3.1,2c0,0,0,0.2,0.2,0.2c1.4-0.8,2.8-1.6,4.2-2.3c-1.1,1.9-5.9,4.7-8.4,3.6
				C51.4,41,53.7,39.9,56,38.8L56,38.8z"/>
		</g>
		<g>
			<path class="st0" d="M74.8,31.6c2.8-0.5,5.6-0.9,8.4-1.2C82.1,32.4,77.3,32.9,74.8,31.6z"/>
		</g>
		<g>
			<path class="st0" d="M49.5,30.4c2.8,0.5,5.6,0.9,8.3,1.2C56.2,32.7,50.7,32.7,49.5,30.4z"/>
		</g>
		<g>
			<path class="st0" d="M52.8,43.7c0.9-0.6,2-1.2,3-1.9c0.9-0.6,1.9-1.4,2.8-1.9c-0.8,0.8-1.7,1.6-2.5,2.3c1.4-0.6,2.3-1.7,3.3-2.7
				C58.8,41.5,54.9,44.3,52.8,43.7z"/>
		</g>
		<g>
			<path class="st0" d="M73.5,32.7c2.5,0.2,5.2,0.2,7.6,0.3C80.1,34.6,75.5,34.3,73.5,32.7z"/>
		</g>
		<g>
			<path class="st0" d="M59.2,32.7c-2.3,1.6-6.4,1.7-7.6,0.3C54.2,33.1,56.7,32.9,59.2,32.7z"/>
		</g>
		<g>
			<path class="st0" d="M68.2,49c-1.2,0-2.3,0-3.3,0c-0.3,0-0.5-0.5-0.2-0.8c0.5-0.5,0.9-0.8,1.6-1.1c0.2,0,0.3,0,0.5,0.2
				c0.3,0.3,0.8,0.5,1.1,0.8C68.1,48.2,68.1,48.5,68.2,49z"/>
		</g>
		<g>
			<path class="st0" d="M73,33.8c2,0.3,4.1,0.6,6.1,0.9C77.7,36.2,74.6,35.5,73,33.8z"/>
		</g>
		<g>
			<path class="st0" d="M59.6,34c-1.4,1.6-4.7,2.2-5.9,0.9C55.6,34.5,57.6,34.1,59.6,34z"/>
		</g>
		<g>
			<path class="st0" d="M72.1,34.8c1.7,0.5,3.3,1.1,5,1.7C76,37.3,73.2,36.5,72.1,34.8z"/>
		</g>
		<g>
			<path class="st0" d="M55.6,36.3c1.6-0.5,3.3-1.1,4.8-1.6C59.8,36.3,57.1,37.3,55.6,36.3z"/>
		</g>
		<g>
			<path class="st0" d="M74.8,37.3c-1.1,0.5-2.8-0.3-3.4-1.7C72.6,36.2,73.7,36.8,74.8,37.3z"/>
		</g>
		<g>
			<path class="st0" d="M61.3,35.5c-0.8,1.4-2.2,2.2-3.4,1.7C59,36.8,60.1,36.2,61.3,35.5z"/>
		</g>
		<g>
			<path class="st0" d="M60.4,38c0.8-0.6,1.4-1.1,2-1.7C62.3,37.4,61.7,38,60.4,38z"/>
		</g>
		<g>
			<path class="st0" d="M72.3,37.9c-1.1,0.2-1.9-0.5-2-1.6C71,37,71.6,37.4,72.3,37.9z"/>
		</g>
		<g>
			<path class="st0" d="M63.4,76.1c-0.3-0.8-0.3-1.7,0.3-2.3c0.8-0.8,1.7-1.6,2.7-2.2c0.8-0.6,1.6-1.4,2.5-2
				c0.2-0.2,0.3-0.2,0.5-0.3c0.6,0,1.4,0,2.2,0c-0.5,1.2-1.2,2.3-2.3,3c-0.9,0.6-2,0.9-3,1.6c-0.6,0.3-1.2,0.6-1.7,1.1
				C63.8,75,63.7,75.5,63.4,76.1z"/>
		</g>
		<g>
			<path class="st0" d="M61.5,69.3c0.8,0,1.4,0,2.2,0c0.2,0,0.2,0.2,0.3,0.2c0.6,0.6,1.1,1.2,1.7,1.9c-0.5,0.3-0.9,0.6-1.4,0.9
				c0,0-0.2,0-0.3,0C62.9,71.6,62,70.5,61.5,69.3z"/>
		</g>
		<g>
			<path class="st0" d="M65.6,75.3c0-0.5-0.2-0.8,0.5-1.1c0.5-0.2,0.6-0.2,1.1,0c0.3,0.2,0.3,0.5,0.3,0.8c0,0.3,0,0.8-0.2,1.1
				c0,0.5-0.3,0.8-0.8,0.8c-0.3,0-0.6-0.5-0.8-0.6C65.6,76,65.6,75.7,65.6,75.3z"/>
		</g>
		<g>
			<path class="st0" d="M65.1,69.3c0.9,0,1.7,0,2.7,0c0.2,0.8-0.5,0.9-0.8,1.2c-0.3,0.2-0.8,0.3-0.9,0.2
				C65.6,70.4,64.9,70.2,65.1,69.3z"/>
		</g>
		<g>
			<path class="st0" d="M69.3,76.1C69,75,68.1,74.4,67,73.8c0.5-0.3,0.9-0.5,1.2-0.6c0.2,0,0.3,0,0.3,0C69.3,73.8,69.9,75,69.3,76.1
				z"/>
		</g>
		<g>
			<path class="st0" d="M80.1,43.7c-0.9-0.6-2-1.2-3-1.9c-0.9-0.6-1.9-1.4-2.8-1.9c0.8,0.8,1.7,1.6,2.5,2.3
				c-1.4-0.6-2.3-1.7-3.3-2.7C74,41.5,77.9,44.3,80.1,43.7z"/>
		</g>
	</g>
</g>
<g class="st1">
	<path class="st2" d="M11,162.1c0.6,0.5,0.9,1.1,0.9,2.1c0,0.9-0.3,1.6-0.9,2.1S9.4,167,8.1,167H6.9v2.1H5v-7.6h3.1
		C9.5,161.4,10.4,161.6,11,162.1z M9.6,165.1c0.2-0.2,0.3-0.6,0.3-1s-0.2-0.7-0.5-0.9c-0.3-0.2-0.8-0.3-1.4-0.3H6.9v2.5h1.3
		C9,165.4,9.4,165.3,9.6,165.1z"/>
	<path class="st2" d="M18.9,161.4h1.9v7.6h-1.9v-3h-3.4v3h-1.9v-7.6h1.9v3.2h3.4V161.4z"/>
	<path class="st2" d="M26.7,169h-1.9v-3l-3-4.6h2.1l1.9,2.8l1.9-2.8h2.1l-3,4.6L26.7,169L26.7,169z"/>
	<path class="st2" d="M32.5,162.9c-0.2,0.1-0.3,0.3-0.3,0.5s0.1,0.4,0.3,0.5c0.2,0.1,0.8,0.3,1.6,0.5c0.8,0.2,1.5,0.4,1.9,0.8
		c0.5,0.4,0.7,0.9,0.7,1.5c0,0.7-0.3,1.2-0.9,1.7c-0.6,0.4-1.3,0.6-2.3,0.6c-1.4,0-2.6-0.4-3.7-1.3l1.2-1.2c0.9,0.7,1.8,1.1,2.6,1.1
		c0.4,0,0.6-0.1,0.8-0.2c0.2-0.1,0.3-0.3,0.3-0.5s-0.1-0.4-0.3-0.5c-0.2-0.1-0.6-0.3-1.3-0.4c-1-0.2-1.7-0.5-2.2-0.8
		c-0.5-0.3-0.7-0.9-0.7-1.6s0.3-1.3,0.9-1.7s1.3-0.6,2.2-0.6c0.6,0,1.2,0.1,1.7,0.3c0.6,0.2,1.1,0.4,1.5,0.7l-1,1.2
		c-0.8-0.5-1.5-0.7-2.3-0.8C32.9,162.7,32.7,162.8,32.5,162.9z"/>
	<path class="st2" d="M38.4,161.4h1.9v7.6h-1.9V161.4z"/>
	<path class="st2" d="M49.7,167.9c-0.9,0.7-2,1.1-3.2,1.1s-2.4-0.4-3.2-1.1c-0.9-0.7-1.3-1.7-1.3-2.8s0.4-2,1.3-2.8
		c0.9-0.7,2-1.1,3.2-1.1s2.4,0.4,3.2,1.1c0.9,0.7,1.3,1.7,1.3,2.8C51,166.3,50.6,167.2,49.7,167.9z M49.1,165.1
		c0-0.7-0.2-1.3-0.7-1.7c-0.5-0.4-1.1-0.7-1.8-0.7c-0.7,0-1.3,0.2-1.8,0.7s-0.7,1.1-0.7,1.7c0,0.7,0.2,1.2,0.7,1.7s1.1,0.7,1.8,0.7
		c0.7,0,1.3-0.2,1.8-0.7S49.1,165.8,49.1,165.1z"/>
	<path class="st2" d="M56.1,162.9v6.1h-1.9v-6.1h-2.5v-1.5h6.9v1.5H56.1z"/>
	<path class="st2" d="M65.4,161.4h1.9v7.6h-1.9v-3H62v3h-1.9v-7.6H62v3.2h3.4V161.4z"/>
	<path class="st2" d="M75.7,161.4v1.5h-4.3v1.6h3.9v1.4h-3.9v1.6h4.5v1.5h-6.4v-7.6C69.5,161.4,75.7,161.4,75.7,161.4z"/>
	<path class="st2" d="M84.6,163.9c0,1.2-0.5,2-1.6,2.3l2.2,2.7h-2.4l-1.9-2.4h-1.3v2.4h-1.9v-7.6H81c1.3,0,2.3,0.2,2.9,0.6
		C84.3,162.4,84.6,163,84.6,163.9z M82.2,164.8c0.2-0.2,0.4-0.5,0.4-0.9c0-0.4-0.1-0.7-0.4-0.8c-0.2-0.2-0.7-0.2-1.3-0.2h-1.4v2.2
		h1.4C81.6,165.1,82,165,82.2,164.8z"/>
	<path class="st2" d="M92.7,169l-0.8-1.6h-3.6l-0.8,1.6h-2.1l3.7-7.6H91l3.7,7.6H92.7z M90.1,163.7l-1.1,2.2h2.2L90.1,163.7z"/>
	<path class="st2" d="M101.8,162.1c0.6,0.5,0.9,1.1,0.9,2.1c0,0.9-0.3,1.6-0.9,2.1s-1.6,0.7-2.9,0.7h-1.2v2.1h-1.9v-7.6h3.1
		C100.2,161.4,101.2,161.6,101.8,162.1z M100.4,165.1c0.2-0.2,0.3-0.6,0.3-1s-0.2-0.7-0.5-0.9c-0.3-0.2-0.8-0.3-1.4-0.3h-1.1v2.5H99
		C99.7,165.4,100.1,165.3,100.4,165.1z"/>
	<path class="st2" d="M107.9,169H106v-3l-3-4.6h2.1l1.9,2.8l1.9-2.8h2.1l-3,4.6v3H107.9z"/>
	<path class="st2" d="M120.1,168.3c-0.7,0.5-1.5,0.7-2.4,0.7s-1.7-0.2-2.3-0.6c-0.6-0.4-0.9-1-0.9-1.7c0-0.8,0.6-1.5,1.8-2.1
		c-0.3-0.3-0.5-0.5-0.6-0.8s-0.2-0.5-0.2-0.8c0-0.6,0.3-1.1,0.8-1.4s1.1-0.5,1.8-0.5s1.3,0.2,1.8,0.5s0.7,0.8,0.7,1.3
		c0,0.7-0.6,1.4-1.8,2c0.5,0.5,0.8,0.9,1,1.1c0.2-0.3,0.4-0.7,0.5-1l1.5,0.9c-0.2,0.5-0.4,0.9-0.7,1.3l1.2,1.1l-1.2,1L120.1,168.3z
		 M116.8,167.5c0.2,0.2,0.6,0.2,0.9,0.2s0.8-0.2,1.2-0.5c-0.6-0.6-1.1-1.1-1.6-1.5c-0.6,0.3-1,0.7-1,1.1
		C116.4,167.1,116.6,167.3,116.8,167.5z M118.2,162.5c-0.2,0-0.3,0.1-0.5,0.2c-0.1,0.1-0.2,0.3-0.2,0.5c0,0.2,0.2,0.5,0.5,0.8
		c0.6-0.3,0.9-0.6,0.9-0.8c0-0.2-0.1-0.4-0.2-0.5C118.6,162.6,118.4,162.5,118.2,162.5z"/>
	<path class="st2" d="M12.1,176.9c0,1.2-0.5,2-1.6,2.3l2.2,2.7h-2.4l-1.9-2.4H7.1v2.4H5.2v-7.6h3.3c1.3,0,2.3,0.2,2.9,0.6
		C11.8,175.4,12.1,176,12.1,176.9z M9.8,177.8c0.2-0.2,0.4-0.5,0.4-0.9c0-0.4-0.1-0.7-0.4-0.8c-0.2-0.2-0.7-0.2-1.3-0.2H7.1v2.2h1.4
		C9.1,178.1,9.5,178,9.8,177.8z"/>
	<path class="st2" d="M20.3,174.4v1.5H16v1.6h3.9v1.4H16v1.6h4.5v1.5h-6.4v-7.6C14.1,174.4,20.3,174.4,20.3,174.4z"/>
	<path class="st2" d="M27.6,174.4h1.9v7.6h-1.9v-3h-3.4v3h-1.9v-7.6h1.9v3.2h3.4V174.4z"/>
	<path class="st2" d="M37.8,182l-0.8-1.6h-3.6l-0.8,1.6h-2.1l3.7-7.6h1.9l3.7,7.6H37.8z M35.2,176.7l-1.1,2.2h2.2L35.2,176.7z"/>
	<path class="st2" d="M44.7,182h-3.8v-7.6h3.4c0.6,0,1.1,0.1,1.5,0.2s0.7,0.3,1,0.5c0.4,0.4,0.6,0.8,0.6,1.3c0,0.6-0.2,1-0.7,1.3
		c-0.1,0.1-0.3,0.2-0.3,0.2c-0.1,0-0.2,0.1-0.3,0.1c0.5,0.1,1,0.3,1.3,0.6s0.5,0.7,0.5,1.2s-0.2,1-0.6,1.4
		C46.7,181.7,45.9,182,44.7,182z M42.8,177.5h0.9c0.5,0,0.9,0,1.2-0.2s0.4-0.3,0.4-0.7c0-0.4-0.1-0.6-0.4-0.7
		c-0.2-0.1-0.6-0.2-1.2-0.2h-0.9V177.5z M42.8,180.6h1.3c0.6,0,1-0.1,1.2-0.2c0.3-0.1,0.4-0.4,0.4-0.7c0-0.4-0.1-0.6-0.4-0.7
		c-0.3-0.1-0.8-0.2-1.4-0.2h-1.1V180.6z"/>
	<path class="st2" d="M49.4,174.4h1.9v7.6h-1.9V174.4z"/>
	<path class="st2" d="M53.5,182v-7.6h1.9v6.1h3.7v1.5H53.5z"/>
	<path class="st2" d="M60.6,174.4h1.9v7.6h-1.9V174.4z"/>
	<path class="st2" d="M68.3,175.9v6.1h-1.9v-6.1h-2.5v-1.5h6.9v1.5C70.8,175.9,68.3,175.9,68.3,175.9z"/>
	<path class="st2" d="M77.7,182l-0.8-1.6h-3.6l-0.8,1.6h-2.1l3.7-7.6H76l3.7,7.6H77.7z M75.1,176.7l-1.1,2.2h2.2L75.1,176.7z"/>
	<path class="st2" d="M83.8,175.9v6.1h-1.9v-6.1h-2.5v-1.5h6.9v1.5C86.3,175.9,83.8,175.9,83.8,175.9z"/>
	<path class="st2" d="M87.7,174.4h1.9v7.6h-1.9V174.4z"/>
	<path class="st2" d="M99,180.9c-0.9,0.7-2,1.1-3.2,1.1s-2.4-0.4-3.2-1.1c-0.9-0.7-1.3-1.7-1.3-2.8c0-1.1,0.4-2,1.3-2.8
		c0.9-0.7,2-1.1,3.2-1.1s2.4,0.4,3.2,1.1c0.9,0.7,1.3,1.7,1.3,2.8C100.3,179.2,99.9,180.2,99,180.9z M98.4,178.2
		c0-0.7-0.2-1.3-0.7-1.7c-0.5-0.5-1.1-0.7-1.8-0.7s-1.3,0.2-1.8,0.7s-0.7,1.1-0.7,1.7c0,0.7,0.2,1.2,0.7,1.7s1.1,0.7,1.8,0.7
		s1.3-0.2,1.8-0.7S98.4,178.8,98.4,178.2z"/>
	<path class="st2" d="M108.1,174.4h1.9v7.6h-1.9l-4.1-4.7v4.7h-1.9v-7.6h1.8l4.3,4.9v-4.9H108.1z"/>
	<path class="st2" d="M9.1,193.5c1,0,1.7-0.3,2.3-1l1.2,1.1c-1,1-2.1,1.5-3.5,1.5s-2.4-0.4-3.3-1.1c-0.9-0.7-1.3-1.7-1.3-2.8
		c0-1.1,0.4-2.1,1.3-2.8c0.9-0.8,2-1.1,3.2-1.1c1.4,0,2.6,0.5,3.6,1.4l-1.2,1.2c-0.6-0.7-1.4-1-2.3-1c-0.7,0-1.3,0.2-1.9,0.6
		c-0.5,0.4-0.8,1-0.8,1.7s0.2,1.3,0.7,1.7C7.6,193.3,8.4,193.5,9.1,193.5z"/>
	<path class="st2" d="M20.4,187.4v1.5h-4.3v1.6H20v1.4h-3.9v1.6h4.5v1.5h-6.4v-7.6H20.4z"/>
	<path class="st2" d="M28.3,187.4h1.9v7.6h-1.9l-4.1-4.7v4.7h-1.9v-7.6h1.8l4.3,4.9v-4.9H28.3z"/>
	<path class="st2" d="M36.1,188.9v6.1h-1.9v-6.1h-2.5v-1.5h6.9v1.5H36.1z"/>
	<path class="st2" d="M47,189.9c0,1.2-0.5,2-1.6,2.3l2.2,2.7h-2.4l-1.9-2.4H42v2.4h-1.9v-7.6h3.3c1.3,0,2.3,0.2,2.9,0.6
		C46.7,188.4,47,189,47,189.9z M44.7,190.8c0.2-0.2,0.4-0.5,0.4-0.9c0-0.4-0.1-0.7-0.4-0.8c-0.2-0.2-0.7-0.2-1.3-0.2H42v2.2h1.4
		C44,191.1,44.4,191,44.7,190.8z"/>
	<path class="st2" d="M55.2,187.4v1.5h-4.3v1.6h3.9v1.4h-3.9v1.6h4.5v1.5H49v-7.6H55.2z"/>
</g>
<g>
	<g class="st3">
		<path class="st2" d="M8.4,94.8c0.3,0.2,0.5,0.6,0.5,1.1S8.7,96.8,8.4,97s-0.8,0.3-1.5,0.3H6.3v1.1h-1v-4h1.6
			C7.5,94.5,8.1,94.6,8.4,94.8z M7.6,96.4c0.1-0.1,0.2-0.3,0.2-0.5s-0.1-0.4-0.2-0.5c-0.2-0.1-0.4-0.1-0.7-0.1H6.3v1.3h0.7
			C7.3,96.6,7.5,96.5,7.6,96.4z"/>
		<path class="st2" d="M12.5,94.5h1v4h-1v-1.6h-1.8v1.6h-1v-4h1v1.7h1.8V94.5z"/>
		<path class="st2" d="M16.5,98.4h-1v-1.6L14,94.5h1.1l1,1.5l1-1.5h1.1l-1.6,2.4V98.4z"/>
		<path class="st2" d="M19.6,95.3c-0.1,0.1-0.1,0.2-0.1,0.3c0,0.1,0.1,0.2,0.2,0.3c0.1,0.1,0.4,0.1,0.8,0.2c0.4,0.1,0.8,0.2,1,0.4
			c0.2,0.2,0.4,0.5,0.4,0.8c0,0.4-0.2,0.6-0.5,0.9c-0.3,0.2-0.7,0.3-1.2,0.3c-0.7,0-1.4-0.2-1.9-0.7l0.6-0.6
			c0.5,0.4,0.9,0.6,1.4,0.6c0.2,0,0.3,0,0.4-0.1c0.1-0.1,0.2-0.2,0.2-0.3s-0.1-0.2-0.2-0.3c-0.1-0.1-0.3-0.1-0.7-0.2
			c-0.5-0.1-0.9-0.3-1.2-0.4c-0.2-0.2-0.4-0.5-0.4-0.8s0.2-0.7,0.5-0.9c0.3-0.2,0.7-0.3,1.2-0.3c0.3,0,0.6,0,0.9,0.1
			c0.3,0.1,0.6,0.2,0.8,0.4l-0.5,0.6c-0.4-0.3-0.8-0.4-1.2-0.4C19.8,95.2,19.7,95.2,19.6,95.3z"/>
		<path class="st2" d="M22.7,94.5h1v4h-1V94.5z"/>
		<path class="st2" d="M28.6,97.9c-0.5,0.4-1,0.6-1.7,0.6s-1.2-0.2-1.7-0.6c-0.5-0.4-0.7-0.9-0.7-1.5c0-0.6,0.2-1.1,0.7-1.5
			c0.5-0.4,1-0.6,1.7-0.6s1.2,0.2,1.7,0.6c0.5,0.4,0.7,0.9,0.7,1.5C29.3,97,29.1,97.5,28.6,97.9z M28.3,96.4c0-0.4-0.1-0.7-0.4-0.9
			s-0.6-0.4-1-0.4s-0.7,0.1-1,0.4s-0.4,0.6-0.4,0.9s0.1,0.7,0.4,0.9s0.6,0.4,1,0.4s0.7-0.1,1-0.4S28.3,96.8,28.3,96.4z"/>
		<path class="st2" d="M31.9,95.2v3.2h-1v-3.2h-1.3v-0.8h3.6v0.8H31.9z"/>
		<path class="st2" d="M36.8,94.5h1v4h-1v-1.6H35v1.6h-1v-4h1v1.7h1.8V94.5z"/>
		<path class="st2" d="M42.2,94.5v0.8h-2.3v0.8h2v0.8h-2v0.8h2.3v0.8h-3.3v-4H42.2z"/>
		<path class="st2" d="M46.8,95.8c0,0.6-0.3,1-0.9,1.2l1.1,1.4h-1.2l-1-1.3h-0.7v1.3h-1v-4h1.7c0.7,0,1.2,0.1,1.5,0.3
			S46.8,95.3,46.8,95.8z M45.6,96.3c0.1-0.1,0.2-0.3,0.2-0.5c0-0.2-0.1-0.4-0.2-0.4c-0.1-0.1-0.4-0.1-0.7-0.1h-0.8v1.2h0.7
			C45.3,96.4,45.5,96.3,45.6,96.3z"/>
		<path class="st2" d="M51.1,98.4l-0.4-0.9h-1.9l-0.4,0.9h-1.1l2-4h1l2,4H51.1z M49.7,95.6l-0.6,1.2h1.1L49.7,95.6z"/>
		<path class="st2" d="M55.8,94.8c0.3,0.2,0.5,0.6,0.5,1.1s-0.2,0.8-0.5,1.1c-0.3,0.2-0.8,0.3-1.5,0.3h-0.6v1.1h-1v-4h1.6
			C55,94.5,55.5,94.6,55.8,94.8z M55.1,96.4c0.1-0.1,0.2-0.3,0.2-0.5s-0.1-0.4-0.2-0.5c-0.2-0.1-0.4-0.1-0.7-0.1h-0.6v1.3h0.7
			C54.7,96.6,55,96.5,55.1,96.4z"/>
		<path class="st2" d="M59,98.4h-1v-1.6l-1.6-2.4h1.1l1,1.5l1-1.5h1.1L59,96.9V98.4z"/>
		<path class="st2" d="M65.4,98.1c-0.4,0.3-0.8,0.4-1.3,0.4s-0.9-0.1-1.2-0.3s-0.5-0.5-0.5-0.9c0-0.4,0.3-0.8,1-1.1
			c-0.1-0.2-0.2-0.3-0.3-0.4s-0.1-0.3-0.1-0.4c0-0.3,0.1-0.6,0.4-0.7c0.3-0.2,0.6-0.3,0.9-0.3s0.7,0.1,0.9,0.2s0.4,0.4,0.4,0.7
			c0,0.4-0.3,0.7-0.9,1c0.2,0.3,0.4,0.5,0.5,0.6c0.1-0.2,0.2-0.4,0.2-0.5l0.8,0.5c-0.1,0.2-0.2,0.5-0.4,0.7l0.6,0.6L66,98.6
			L65.4,98.1z M63.7,97.6c0.1,0.1,0.3,0.1,0.5,0.1c0.2,0,0.4-0.1,0.6-0.2c-0.3-0.3-0.6-0.6-0.8-0.8c-0.3,0.2-0.5,0.4-0.5,0.6
			C63.5,97.4,63.6,97.5,63.7,97.6z M64.4,95c-0.1,0-0.2,0-0.3,0.1s-0.1,0.1-0.1,0.2s0.1,0.2,0.3,0.4c0.3-0.2,0.5-0.3,0.5-0.4
			c0-0.1,0-0.2-0.1-0.2S64.5,95,64.4,95z"/>
	</g>
	<g class="st3">
		<path class="st2" d="M72.8,95.9c0,0.6-0.3,1-0.9,1.2l1.1,1.4h-1.2l-1-1.3h-0.7v1.3h-1v-4h1.7c0.7,0,1.2,0.1,1.5,0.3
			C72.7,95.1,72.8,95.5,72.8,95.9z M71.6,96.4c0.1-0.1,0.2-0.3,0.2-0.5c0-0.2-0.1-0.4-0.2-0.4c-0.1-0.1-0.4-0.1-0.7-0.1h-0.8v1.2
			h0.7C71.2,96.6,71.5,96.5,71.6,96.4z"/>
		<path class="st2" d="M77.1,94.6v0.8h-2.3v0.8h2V97h-2v0.8h2.3v0.8h-3.3v-4H77.1z"/>
		<path class="st2" d="M80.9,94.6h1v4h-1V97h-1.8v1.6h-1v-4h1v1.7h1.8V94.6z"/>
		<path class="st2" d="M86.3,98.6l-0.4-0.9H84l-0.4,0.9h-1.1l2-4h1l2,4H86.3z M84.9,95.8L84.3,97h1.1L84.9,95.8z"/>
		<path class="st2" d="M89.9,98.6h-2v-4h1.8c0.3,0,0.6,0,0.8,0.1c0.2,0.1,0.4,0.2,0.5,0.3c0.2,0.2,0.3,0.4,0.3,0.7
			c0,0.3-0.1,0.5-0.3,0.7c-0.1,0.1-0.1,0.1-0.2,0.1c0,0-0.1,0-0.2,0.1c0.3,0.1,0.5,0.2,0.7,0.3c0.2,0.2,0.2,0.4,0.2,0.6
			c0,0.3-0.1,0.5-0.3,0.7C90.9,98.5,90.5,98.6,89.9,98.6z M88.9,96.2h0.5c0.3,0,0.5,0,0.6-0.1s0.2-0.2,0.2-0.3s-0.1-0.3-0.2-0.3
			s-0.3-0.1-0.6-0.1h-0.5V96.2z M88.9,97.8h0.7c0.3,0,0.5,0,0.7-0.1c0.1-0.1,0.2-0.2,0.2-0.4s-0.1-0.3-0.2-0.4
			c-0.2-0.1-0.4-0.1-0.7-0.1h-0.6V97.8z"/>
		<path class="st2" d="M92.4,94.6h1v4h-1V94.6z"/>
		<path class="st2" d="M94.5,98.6v-4h1v3.2h1.9v0.8H94.5z"/>
		<path class="st2" d="M98.2,94.6h1v4h-1V94.6z"/>
		<path class="st2" d="M102.2,95.4v3.2h-1v-3.2h-1.3v-0.8h3.6v0.8H102.2z"/>
		<path class="st2" d="M107.1,98.6l-0.4-0.9h-1.9l-0.4,0.9h-1.1l2-4h1l2,4H107.1z M105.8,95.8l-0.6,1.2h1.1L105.8,95.8z"/>
		<path class="st2" d="M110.3,95.4v3.2h-1v-3.2H108v-0.8h3.6v0.8H110.3z"/>
		<path class="st2" d="M112.4,94.6h1v4h-1V94.6z"/>
		<path class="st2" d="M118.3,98c-0.5,0.4-1,0.6-1.7,0.6s-1.2-0.2-1.7-0.6c-0.5-0.4-0.7-0.9-0.7-1.5c0-0.6,0.2-1.1,0.7-1.5
			c0.5-0.4,1-0.6,1.7-0.6s1.2,0.2,1.7,0.6c0.5,0.4,0.7,0.9,0.7,1.5C119,97.2,118.8,97.7,118.3,98z M118,96.6c0-0.4-0.1-0.7-0.4-0.9
			c-0.3-0.2-0.6-0.4-1-0.4s-0.7,0.1-1,0.4s-0.4,0.6-0.4,0.9s0.1,0.7,0.4,0.9s0.6,0.4,1,0.4s0.7-0.1,1-0.4
			C117.8,97.2,118,96.9,118,96.6z"/>
		<path class="st2" d="M123,94.6h1v4h-1l-2.2-2.5v2.5h-1v-4h0.9l2.2,2.6V94.6z"/>
	</g>
</g>
<g class="st3">
	<path class="st2" d="M54.5,106.5c0.5,0,0.9-0.2,1.2-0.5l0.6,0.6c-0.5,0.5-1.1,0.8-1.8,0.8s-1.3-0.2-1.7-0.6s-0.7-0.9-0.7-1.5
		s0.2-1.1,0.7-1.5c0.5-0.4,1-0.6,1.7-0.6c0.7,0,1.4,0.2,1.9,0.7l-0.6,0.6c-0.3-0.3-0.7-0.5-1.2-0.5c-0.4,0-0.7,0.1-1,0.3
		s-0.4,0.5-0.4,0.9s0.1,0.7,0.4,0.9C53.9,106.4,54.2,106.5,54.5,106.5z"/>
	<path class="st2" d="M60.5,103.4v0.8h-2.3v0.8h2v0.8h-2v0.8h2.3v0.8h-3.3v-4H60.5z"/>
	<path class="st2" d="M64.6,103.4h1v4h-1l-2.2-2.5v2.5h-1v-4h0.9l2.2,2.6V103.4z"/>
	<path class="st2" d="M68.7,104.1v3.2h-1v-3.2h-1.3v-0.8H70v0.8H68.7z"/>
	<path class="st2" d="M74.4,104.7c0,0.6-0.3,1-0.9,1.2l1.1,1.4h-1.2l-1-1.3h-0.7v1.3h-1v-4h1.7c0.7,0,1.2,0.1,1.5,0.3
		C74.2,103.9,74.4,104.2,74.4,104.7z M73.2,105.1c0.1-0.1,0.2-0.3,0.2-0.5s-0.1-0.4-0.2-0.4c-0.1-0.1-0.4-0.1-0.7-0.1h-0.8v1.2h0.7
		C72.8,105.3,73,105.2,73.2,105.1z"/>
	<path class="st2" d="M78.7,103.4v0.8h-2.3v0.8h2v0.8h-2v0.8h2.3v0.8h-3.3v-4H78.7z"/>
</g>
<g>
	<text transform="matrix(1.1452 0 0 1 162.3403 152.335)" class="st2" style="font-family:'Montserrat-Bold'; font-size:5.6685px;">PHYSIOTHERAPY &amp;</text>
	
		<text transform="matrix(1.1452 0 0 1 226.2383 152.4986)" class="st2" style="font-family:'Montserrat-Bold'; font-size:5.6685px;">REHABILITATION </text>
</g>
<text transform="matrix(1.1452 0 0 1 209.5468 161.2286)" class="st2" style="font-family:'Montserrat-Bold'; font-size:5.6685px;">CENTRE</text>
</svg>
