<svg version="1.2" xmlns="http://www.w3.org/2000/svg" viewBox="0 0 181 59" width="181" height="59">
	<title>footer-logo</title>
	<style>
		.s0 { fill: #d4f0f5 } 
		.s1 { fill: #ffffff } 
		.s2 { fill: #f2f7f4 } 
	</style>
	<path class="s0" d="m28.8 20.2c4 0 7.2-3.2 7.2-7.1 0-4-3.2-7.2-7.2-7.2-3.9 0-7.1 3.2-7.1 7.2 0 3.9 3.2 7.1 7.1 7.1zm0-11c2.2 0 3.9 1.8 3.9 3.9 0 2.1-1.7 3.8-3.9 3.8-2.1 0-3.8-1.7-3.8-3.8 0-2.1 1.7-3.9 3.8-3.9z"/>
	<path class="s0" d="m47.6 20.2q-1-1.7-2.4-3.2-0.2 0.1-0.3 0.1-1.8 0.3-3.4 1c-2 0.9-3.8 2.4-5.2 4.3q-1.5 2.1-2.1 4.6 0 0.1 0 0.2v0.2q-0.1 0.2-0.1 0.5l-4.5 23.2q-0.4 0.1-0.8 0.1-0.4 0-0.8-0.1l-4.4-23.2q0-0.3-0.1-0.5v-0.2q0-0.1 0-0.2-0.6-2.5-2.2-4.6c-1.3-1.9-3.1-3.4-5.2-4.3q-1.7-0.8-3.6-1.1-1.4 1.5-2.4 3.2c-2.3 3.6-3.5 7.7-3.5 12 0 12.3 10 22.3 22.2 22.3 12.3 0 22.3-10 22.3-22.3 0-4.3-1.2-8.4-3.5-12zm-37.7 12c0-4.2 1.4-8.2 3.8-11.5q0.1 0 0.1 0c1.9 0.6 3.6 1.9 4.9 3.6q1.1 1.6 1.6 3.6 0 0 0 0.1 0 0.2 0.1 0.5l4.2 22.2c-8.4-2-14.7-9.5-14.7-18.5zm23.2 18.5l4.2-22.3q0.1-0.1 0.1-0.4 0-0.1 0-0.1 0.5-2 1.6-3.6c1.3-1.7 3-3 5-3.6 2.4 3.3 3.8 7.3 3.8 11.5 0 9-6.3 16.5-14.7 18.5z"/>
	<path class="s1" d="m28.8 24.6c0.6 0 1-0.5 1-1 0-0.6-0.4-1-1-1-0.5 0-0.9 0.4-0.9 1 0 0.5 0.4 1 0.9 1z"/>
	<path class="s1" d="m28.8 28.8c0.7 0 1.3-0.5 1.3-1.2 0-0.7-0.6-1.2-1.3-1.2-0.6 0-1.2 0.5-1.2 1.2 0 0.7 0.6 1.2 1.2 1.2z"/>
	<path class="s1" d="m28.8 30.7c-0.8 0-1.6 0.7-1.6 1.6 0 0.9 0.8 1.6 1.6 1.6 0.9 0 1.7-0.7 1.7-1.6 0-0.9-0.8-1.6-1.7-1.6z"/>
	<path class="s1" d="m28.8 40c-0.5 0-0.9 0.5-0.9 1 0 0.5 0.4 1 0.9 1 0.6 0 1-0.5 1-1 0-0.5-0.4-1-1-1z"/>
	<path class="s1" d="m28.8 35.8c-0.6 0-1.2 0.5-1.2 1.2 0 0.6 0.6 1.2 1.2 1.2 0.7 0 1.3-0.6 1.3-1.2 0-0.7-0.6-1.2-1.3-1.2z"/>
	<path id="AURA  Physiotherapy" class="s2" aria-label="AURA 
Physiotherapy"  d="m71.4 28.3v0.7h-4.1v-0.7l1-0.1q0.1 0 0.2-0.1 0-0.1 0-0.2l-1.2-3.1h-3.9l-1.1 3q-0.1 0.1 0 0.3 0.1 0.1 0.2 0.1l1 0.1v0.7h-3.4v-0.7l1-0.2 3.9-10.8h1.3l4 10.5q0 0.2 0.1 0.2 0 0.1 0.2 0.1zm-7.7-4.3h3.3l-1.6-4.4zm19.4-6.4v0.7l-1 0.1q-0.2 0-0.3 0.1-0.1 0.2-0.1 0.3v6.4q0 2.1-1.1 3.1-1.1 1-3.2 1-2.1 0-3.2-1-1-1.1-1-3.1v-6.4q0-0.1-0.1-0.3 0-0.1-0.2-0.1l-0.9-0.1v-0.7h4.3v0.7l-1 0.1q-0.2 0-0.3 0.1 0 0.2 0 0.3v6q0 1 0.2 1.7 0.2 0.8 0.8 1.2 0.7 0.4 1.8 0.4 1.2 0 1.8-0.4 0.7-0.4 0.9-1.2 0.2-0.8 0.2-1.7v-6q0-0.1-0.1-0.3-0.1-0.1-0.2-0.1l-1-0.1v-0.7zm11.5 10.7v0.8q-0.1 0-0.4 0.1-0.4 0.1-0.7 0.1-0.9 0-1.4-0.3-0.5-0.3-0.8-0.8-0.3-0.5-0.5-1-0.1-0.6-0.3-1.2-0.1-0.5-0.4-1-0.3-0.5-0.8-0.8-0.6-0.3-1.5-0.3-0.2 0-0.5 0-0.2 0.1-0.2 0.1v3.8q0 0.2 0.1 0.3 0 0.1 0.2 0.1l0.9 0.1v0.7h-4.2v-0.7l0.9-0.1q0.2 0 0.3-0.1 0.1-0.1 0.1-0.3v-9q0-0.1-0.1-0.3-0.1-0.1-0.3-0.1l-0.9-0.1v-0.7h4.4q2 0 3.1 0.7 1.1 0.6 1.1 2.3 0 0.9-0.4 1.5-0.4 0.6-1 0.9-0.7 0.3-1.4 0.5 0.8 0.2 1.2 0.5 0.5 0.4 0.7 0.8 0.2 0.5 0.3 0.9 0.1 0.5 0.2 1 0.2 0.4 0.4 0.8 0.2 0.4 0.6 0.6 0.5 0.2 1.3 0.2zm-3.8-7.6q0-1.1-0.6-1.7-0.7-0.6-2.3-0.6 0 0-0.2 0-0.2 0-0.4 0-0.2 0-0.2 0v4.7q0 0 0.3 0 0.3 0 0.5 0 1.4 0 2.2-0.5 0.7-0.5 0.7-1.9zm15.2 7.6v0.7h-4.1v-0.7l1-0.1q0.1 0 0.1-0.1 0.1-0.1 0.1-0.2l-1.2-3.1h-3.9l-1.2 3.1q0 0.1 0.1 0.2 0.1 0.1 0.2 0.1l1 0.1v0.7h-3.4v-0.7l1-0.2 3.9-10.8h1.3l3.9 10.5q0.1 0.2 0.2 0.3 0 0 0.2 0zm-7.7-4.3h3.3l-1.6-4.4zm-29.1 17q0 1.3-0.6 2.1-0.6 0.8-1.6 1.3-1 0.4-2.3 0.4-0.3 0-0.7-0.1-0.4 0-0.5 0v3.1q0 0.2 0.1 0.3 0.1 0.1 0.3 0.1l1.1 0.1v0.7h-4.5v-0.7l0.9-0.1q0.2 0 0.3-0.1 0.1-0.1 0.1-0.3v-9q0-0.1-0.1-0.3-0.1-0.1-0.3-0.1l-1-0.1v-0.7h4.1q2.4 0 3.5 0.8 1.2 0.8 1.2 2.6zm-1.8 0.1q0-1.3-0.7-2-0.7-0.7-2.3-0.7-0.3 0-0.6 0.1-0.3 0-0.3 0v5.3q0.1 0 0.4 0.1 0.3 0 0.6 0 1.3 0 2.1-0.7 0.8-0.7 0.8-2.1zm11.8 7.3v0.6h-3.8v-0.6l0.7-0.1q0.2 0 0.3-0.1 0.1-0.1 0.1-0.3v-4.4q0-0.7-0.4-1.2-0.3-0.4-1.3-0.4-0.5 0-1 0.1-0.5 0.1-0.9 0.4v5.5q0 0.4 0.4 0.4l0.7 0.1v0.6h-3.8v-0.6l0.8-0.1q0.4 0 0.4-0.4v-10.2h-1.3v-0.6l2.2-0.6h0.6v5.2q0.3-0.2 0.8-0.5 0.5-0.2 1.1-0.4 0.5-0.2 0.9-0.2 1 0 1.7 0.6 0.7 0.7 0.7 2v4.7q0 0.2 0.1 0.3 0.1 0.1 0.2 0.1zm9.3-7.5v0.6l-0.9 0.1-3.3 8q-0.1 0.3-0.3 0.8-0.2 0.5-0.6 1-0.3 0.6-0.6 0.9-0.3 0.3-0.7 0.5-0.4 0.2-0.8 0.2-0.6 0-0.9-0.3-0.4-0.3-0.4-0.7 0-0.6 0.6-1l1.6 0.7q0.3-0.3 0.6-0.8 0.2-0.4 0.5-1 0.2-0.5 0.3-0.8l-2.9-7.5-0.9-0.1v-0.6h3.8v0.6l-0.9 0.1q-0.1 0-0.2 0.1-0.1 0.1 0 0.3l2 5 2-5q0-0.2 0-0.3-0.1-0.1-0.3-0.1l-0.8-0.1v-0.6zm6.1 0.2v2h-0.9l-0.1-1.2q-0.2-0.2-0.5-0.3-0.4-0.1-0.8-0.1-0.7 0-1 0.3-0.4 0.3-0.4 0.8 0 0.4 0.2 0.7 0.2 0.2 0.6 0.5 0.4 0.2 1.1 0.6 0.9 0.4 1.5 0.9 0.6 0.5 0.6 1.3 0 1.3-0.9 2-0.8 0.7-2.4 0.7-0.7 0-1.4-0.2-0.7-0.1-0.9-0.3v-2.2h0.8l0.3 1.4q0.2 0.2 0.6 0.4 0.4 0.1 0.9 0.1 0.7 0 1.1-0.4 0.4-0.4 0.4-0.9 0-0.7-0.6-1.1-0.5-0.3-1.5-0.8-0.9-0.5-1.4-0.9-0.5-0.5-0.5-1.3 0-1.1 0.8-1.8 0.8-0.6 2.3-0.6 0.7 0 1.3 0.1 0.6 0.1 0.8 0.3zm4.6-3q0 0.4-0.3 0.7-0.3 0.3-0.8 0.3-0.4 0-0.7-0.3-0.3-0.3-0.3-0.7 0-0.5 0.3-0.8 0.3-0.3 0.7-0.3 0.5 0 0.8 0.3 0.3 0.3 0.3 0.8zm0.8 10.3v0.7h-4v-0.7h0.9q0.3-0.1 0.3-0.4v-6.1h-1.1v-0.6l2-0.6h0.7v7.3q0 0.1 0.1 0.2 0.1 0.1 0.3 0.2zm9.2-3.5q0 1.2-0.5 2.2-0.5 1-1.4 1.6-0.9 0.5-2.1 0.5-1.3 0-2.2-0.5-0.9-0.6-1.4-1.6-0.5-0.9-0.5-2.2 0-1.2 0.5-2.2 0.5-0.9 1.4-1.5 1-0.6 2.2-0.6 1.3 0 2.2 0.6 0.9 0.6 1.3 1.6 0.5 0.9 0.5 2.1zm-1.8 0q0-0.9-0.2-1.7-0.2-0.8-0.7-1.3-0.5-0.5-1.3-0.5-0.8 0-1.3 0.5-0.5 0.5-0.7 1.3-0.3 0.8-0.3 1.7 0 0.9 0.3 1.8 0.2 0.8 0.7 1.3 0.5 0.5 1.3 0.5 0.8 0 1.3-0.5 0.5-0.5 0.7-1.3 0.2-0.9 0.2-1.8zm8.1 3.1v0.7q0 0-0.4 0.1-0.3 0.1-0.8 0.3-0.5 0.1-1.1 0.1-1 0-1.4-0.4-0.5-0.5-0.5-1.5v-5.6h-1v-0.6l1.1-0.5 0.8-1.8h0.7v2h2.4v0.9h-2.4v4.7q0 1 0.4 1.5 0.3 0.4 1 0.4 0.5 0 0.8-0.2 0.4-0.1 0.4-0.1zm9.4 0.4v0.6h-3.7v-0.6l0.6-0.1q0.2 0 0.3-0.1 0.1-0.1 0.1-0.3v-4.4q0-0.7-0.3-1.2-0.4-0.4-1.4-0.4-0.4 0-0.9 0.1-0.5 0.1-0.9 0.4v5.5q0 0.4 0.3 0.4l0.8 0.1v0.6h-3.9v-0.6l0.8-0.1q0.4 0 0.4-0.4v-10.2h-1.3v-0.6l2.2-0.6h0.7v5.2q0.3-0.2 0.8-0.5 0.5-0.2 1-0.4 0.6-0.2 1-0.2 1 0 1.6 0.7 0.7 0.6 0.7 1.9v4.7q0 0.2 0.1 0.3 0.1 0.1 0.3 0.1zm8.1-1.2v1q-0.7 0.5-1.5 0.8-0.8 0.3-1.7 0.3-1 0-1.9-0.5-0.9-0.4-1.5-1.4-0.5-0.9-0.5-2.3 0-1.4 0.5-2.4 0.5-0.9 1.4-1.5 0.9-0.5 2-0.5 1.6 0 2.4 1 0.8 0.9 0.8 2.5 0 0 0 0.2 0 0.1 0 0.2h-5.5q0 0.7 0.1 1.3 0.2 0.7 0.5 1.2 0.3 0.5 0.9 0.8 0.5 0.3 1.3 0.3 0.8 0 1.5-0.3 0.7-0.3 1.2-0.7zm-5.4-3.3h3.7v-0.4q0-0.8-0.4-1.4-0.4-0.6-1.2-0.6-0.9 0-1.5 0.6-0.5 0.7-0.6 1.8zm12.5-3v1.7h-0.7q-0.1-0.2-0.4-0.3-0.2-0.2-0.5-0.2-0.4 0-0.8 0.3-0.5 0.3-0.9 0.8v4.8q0 0.3 0.4 0.4h1.1v0.7h-4.3v-0.7h0.9q0.1-0.1 0.2-0.2 0.1-0.1 0.1-0.2v-5.9h-1.2v-0.6l2.1-0.6h0.7v1.5q0.7-0.9 1.3-1.3 0.5-0.4 0.9-0.4 0.3 0 0.6 0.1 0.3 0 0.5 0.1zm8.5 7.5v0.7h-2.5l-0.2-1q0 0-0.3 0.1-0.2 0.2-0.6 0.5-0.5 0.2-1 0.4-0.5 0.2-1 0.2-0.9 0-1.5-0.6-0.7-0.7-0.7-1.7 0-0.5 0.2-0.9 0.2-0.4 0.7-0.8 0.5-0.3 1.5-0.7 1-0.4 2.7-0.7 0 0 0-0.2 0-0.2 0-0.4 0-0.1 0-0.1 0-1.7-1.6-1.7-0.4 0-0.8 0.1-0.3 0-0.4 0.1v1.5h-1.2q-0.3 0-0.5-0.1-0.2-0.1-0.2-0.4 0-0.7 0.6-1.2 0.5-0.4 1.3-0.6 0.8-0.2 1.7-0.2 1 0 1.6 0.3 0.6 0.3 0.8 0.9 0.2 0.6 0.2 1.3v4.8q0 0.1 0.1 0.2 0.2 0.1 0.3 0.2zm-2.7-1v-2.9q-1.2 0.3-1.9 0.6-0.6 0.2-1 0.5-0.3 0.3-0.4 0.6-0.1 0.3-0.1 0.6 0 0.5 0.3 1 0.4 0.4 1 0.4 0.3 0 0.7-0.1 0.3-0.1 0.7-0.3 0.3-0.1 0.5-0.3 0.2-0.1 0.2-0.1zm11.9-2.6q0 1.3-0.5 2.3-0.5 1-1.5 1.6-0.9 0.5-2.3 0.5-0.4 0-0.7 0-0.4-0.1-0.8-0.1v2.5q0 0.2 0.1 0.3 0.1 0 0.3 0.1l1 0.1v0.6h-4.2v-0.6l0.9-0.1q0.3-0.1 0.3-0.4v-9.6h-1.2v-0.5l2.1-0.7h0.7v0.9q0.6-0.5 1.2-0.8 0.7-0.3 1.4-0.3 0.8 0 1.6 0.5 0.7 0.6 1.2 1.5 0.4 0.9 0.4 2.2zm-1.7 0.2q0-0.8-0.3-1.6-0.2-0.7-0.8-1.1-0.5-0.5-1.3-0.5-0.4 0-0.9 0.2-0.4 0.1-0.8 0.3v5.9q0.7 0.2 1.4 0.2 0.9 0 1.5-0.4 0.6-0.5 0.9-1.3 0.3-0.8 0.3-1.7zm11.1-4.2v0.7l-0.9 0.1-3.2 7.9q-0.1 0.3-0.4 0.8-0.2 0.5-0.5 1.1-0.3 0.5-0.7 0.9-0.3 0.3-0.6 0.4-0.4 0.2-0.8 0.2-0.6 0-1-0.3-0.3-0.3-0.3-0.7 0-0.5 0.6-1l1.6 0.8q0.2-0.3 0.5-0.8 0.3-0.5 0.5-1 0.3-0.5 0.4-0.9l-2.9-7.4-0.9-0.1v-0.7h3.7v0.7h-0.8q-0.1 0-0.2 0.2-0.1 0.1-0.1 0.2l2 5 2-5q0.1-0.1 0-0.2-0.1-0.2-0.2-0.2h-0.8v-0.7z"/>
</svg>